G75*
%MOIN*%
%OFA0B0*%
%FSLAX24Y24*%
%IPPOS*%
%LPD*%
%AMOC8*
5,1,8,0,0,1.08239X$1,22.5*
%
%ADD10C,0.0594*%
%ADD11C,0.0357*%
%ADD12C,0.0071*%
%ADD13C,0.0142*%
%ADD14C,0.0396*%
D10*
X013500Y003300D03*
X014500Y003300D03*
X015500Y003300D03*
X016500Y003300D03*
X017500Y003300D03*
X018500Y003300D03*
X020500Y003300D03*
X021500Y003300D03*
X022500Y003300D03*
X022500Y004300D03*
X021500Y004300D03*
X020500Y004300D03*
X023500Y004300D03*
X024500Y004300D03*
X025500Y004300D03*
X025500Y003300D03*
X024500Y003300D03*
X023500Y003300D03*
X025500Y012300D03*
X025500Y013300D03*
X025500Y014300D03*
X026500Y014300D03*
X026500Y013300D03*
X026500Y012300D03*
X025500Y021300D03*
X024500Y021300D03*
X023500Y021300D03*
X023500Y022300D03*
X024500Y022300D03*
X025500Y022300D03*
X022500Y022300D03*
X021500Y022300D03*
X020500Y022300D03*
X020500Y021300D03*
X021500Y021300D03*
X022500Y021300D03*
X019500Y021300D03*
X018500Y021300D03*
X018500Y022300D03*
X019500Y022300D03*
X017000Y022300D03*
X017000Y021300D03*
X016000Y021300D03*
X015000Y021300D03*
X014000Y021300D03*
X014000Y022300D03*
X015000Y022300D03*
X016000Y022300D03*
X013000Y022300D03*
X012000Y022300D03*
X011000Y022300D03*
X011000Y021300D03*
X012000Y021300D03*
X013000Y021300D03*
X010000Y021300D03*
X010000Y022300D03*
X005118Y021080D03*
X004118Y021080D03*
X003118Y021080D03*
X002118Y021080D03*
D11*
X004752Y019733D03*
X002413Y018528D03*
X003406Y016473D03*
X003689Y015269D03*
X003689Y014772D03*
X001846Y014843D03*
X005957Y012576D03*
X004398Y011017D03*
X003972Y010662D03*
X003547Y010308D03*
X008154Y012859D03*
X007657Y015765D03*
X008154Y019662D03*
X015594Y012009D03*
X018571Y011938D03*
X018571Y016048D03*
X012547Y011583D03*
X012193Y008182D03*
X011059Y007544D03*
X014744Y007615D03*
X025091Y007828D03*
X026012Y017465D03*
X026012Y019946D03*
D12*
X025448Y005491D02*
X006167Y005491D01*
X006098Y005560D02*
X025467Y005560D01*
X025485Y005630D02*
X006029Y005630D01*
X005959Y005699D02*
X025504Y005699D01*
X025507Y005711D02*
X025435Y005440D01*
X025435Y005160D01*
X025507Y004889D01*
X025634Y004669D01*
X025578Y004692D01*
X025422Y004692D01*
X025278Y004633D01*
X025167Y004522D01*
X025108Y004378D01*
X025108Y004222D01*
X025167Y004078D01*
X025278Y003967D01*
X025422Y003908D01*
X025578Y003908D01*
X025722Y003967D01*
X025833Y004078D01*
X025892Y004222D01*
X025892Y004378D01*
X025869Y004434D01*
X026089Y004307D01*
X026360Y004235D01*
X026640Y004235D01*
X026911Y004307D01*
X027065Y004396D01*
X027065Y002980D01*
X026820Y002735D01*
X008923Y002735D01*
X000935Y010723D01*
X000935Y022620D01*
X001180Y022865D01*
X005596Y022865D01*
X005507Y022711D01*
X005435Y022440D01*
X005435Y022160D01*
X005507Y021889D01*
X005648Y021646D01*
X005846Y021448D01*
X006089Y021307D01*
X006360Y021235D01*
X006640Y021235D01*
X006911Y021307D01*
X007154Y021448D01*
X007352Y021646D01*
X007493Y021889D01*
X007565Y022160D01*
X007565Y022440D01*
X007493Y022711D01*
X007404Y022865D01*
X026820Y022865D01*
X027065Y022620D01*
X027065Y017204D01*
X026911Y017293D01*
X026640Y017365D01*
X026360Y017365D01*
X026089Y017293D01*
X025846Y017152D01*
X025648Y016954D01*
X025507Y016711D01*
X025435Y016440D01*
X025435Y016160D01*
X025507Y015889D01*
X025648Y015646D01*
X025846Y015448D01*
X026089Y015307D01*
X026360Y015235D01*
X026640Y015235D01*
X026911Y015307D01*
X027065Y015396D01*
X027065Y006204D01*
X026911Y006293D01*
X026640Y006365D01*
X026360Y006365D01*
X026089Y006293D01*
X025846Y006152D01*
X025648Y005954D01*
X025507Y005711D01*
X025540Y005768D02*
X005890Y005768D01*
X005821Y005838D02*
X025580Y005838D01*
X025620Y005907D02*
X005751Y005907D01*
X005682Y005976D02*
X025670Y005976D01*
X025739Y006046D02*
X005612Y006046D01*
X005543Y006115D02*
X025809Y006115D01*
X025901Y006185D02*
X005474Y006185D01*
X005404Y006254D02*
X026021Y006254D01*
X026203Y006323D02*
X005335Y006323D01*
X005266Y006393D02*
X027065Y006393D01*
X027065Y006462D02*
X005196Y006462D01*
X005127Y006531D02*
X027065Y006531D01*
X027065Y006601D02*
X005058Y006601D01*
X004988Y006670D02*
X027065Y006670D01*
X027065Y006739D02*
X004919Y006739D01*
X004849Y006809D02*
X027065Y006809D01*
X027065Y006878D02*
X004780Y006878D01*
X004711Y006948D02*
X027065Y006948D01*
X027065Y007017D02*
X004641Y007017D01*
X004572Y007086D02*
X027065Y007086D01*
X027065Y007156D02*
X004503Y007156D01*
X004433Y007225D02*
X027065Y007225D01*
X027065Y007294D02*
X004364Y007294D01*
X004295Y007364D02*
X027065Y007364D01*
X027065Y007433D02*
X004225Y007433D01*
X004156Y007502D02*
X027065Y007502D01*
X027065Y007572D02*
X004086Y007572D01*
X004017Y007641D02*
X027065Y007641D01*
X027065Y007711D02*
X003948Y007711D01*
X003878Y007780D02*
X027065Y007780D01*
X027065Y007849D02*
X003809Y007849D01*
X003740Y007919D02*
X027065Y007919D01*
X027065Y007988D02*
X003670Y007988D01*
X003601Y008057D02*
X027065Y008057D01*
X027065Y008127D02*
X003531Y008127D01*
X003462Y008196D02*
X027065Y008196D01*
X027065Y008266D02*
X003393Y008266D01*
X003323Y008335D02*
X027065Y008335D01*
X027065Y008404D02*
X003254Y008404D01*
X003185Y008474D02*
X027065Y008474D01*
X027065Y008543D02*
X003115Y008543D01*
X003046Y008612D02*
X027065Y008612D01*
X027065Y008682D02*
X002977Y008682D01*
X002907Y008751D02*
X027065Y008751D01*
X027065Y008820D02*
X002838Y008820D01*
X002768Y008890D02*
X027065Y008890D01*
X027065Y008959D02*
X002699Y008959D01*
X002630Y009029D02*
X027065Y009029D01*
X027065Y009098D02*
X002560Y009098D01*
X002491Y009167D02*
X027065Y009167D01*
X027065Y009237D02*
X002422Y009237D01*
X002352Y009306D02*
X027065Y009306D01*
X027065Y009375D02*
X002283Y009375D01*
X002214Y009445D02*
X027065Y009445D01*
X027065Y009514D02*
X002144Y009514D01*
X002075Y009583D02*
X027065Y009583D01*
X027065Y009653D02*
X002005Y009653D01*
X001936Y009722D02*
X027065Y009722D01*
X027065Y009792D02*
X001867Y009792D01*
X001797Y009861D02*
X027065Y009861D01*
X027065Y009930D02*
X001728Y009930D01*
X001659Y010000D02*
X027065Y010000D01*
X027065Y010069D02*
X001589Y010069D01*
X001520Y010138D02*
X027065Y010138D01*
X027065Y010208D02*
X001450Y010208D01*
X001381Y010277D02*
X027065Y010277D01*
X027065Y010347D02*
X001312Y010347D01*
X001242Y010416D02*
X003852Y010416D01*
X003817Y010430D02*
X003918Y010388D01*
X004027Y010388D01*
X004128Y010430D01*
X004205Y010507D01*
X004246Y010608D01*
X004246Y010717D01*
X004205Y010817D01*
X004128Y010894D01*
X004027Y010936D01*
X003918Y010936D01*
X003817Y010894D01*
X003740Y010817D01*
X003730Y010793D01*
X001688Y010793D01*
X001410Y011071D01*
X001410Y012543D01*
X001432Y012521D01*
X001509Y012445D01*
X005714Y012445D01*
X005725Y012420D01*
X005802Y012343D01*
X005902Y012302D01*
X006011Y012302D01*
X006112Y012343D01*
X006189Y012420D01*
X006231Y012521D01*
X006231Y012630D01*
X006189Y012731D01*
X006112Y012808D01*
X006011Y012849D01*
X005902Y012849D01*
X005802Y012808D01*
X005725Y012731D01*
X005714Y012706D01*
X001617Y012706D01*
X001552Y012772D01*
X001552Y015449D01*
X001786Y015214D01*
X001863Y015138D01*
X003447Y015138D01*
X003457Y015113D01*
X003534Y015036D01*
X003635Y014995D01*
X003743Y014995D01*
X003844Y015036D01*
X003921Y015113D01*
X003963Y015214D01*
X003963Y015323D01*
X003921Y015424D01*
X003844Y015501D01*
X003743Y015542D01*
X003635Y015542D01*
X003534Y015501D01*
X003457Y015424D01*
X003447Y015399D01*
X001972Y015399D01*
X001694Y015677D01*
X001694Y016582D01*
X001857Y016419D01*
X001934Y016342D01*
X003163Y016342D01*
X003173Y016318D01*
X003250Y016241D01*
X003351Y016199D01*
X003460Y016199D01*
X003561Y016241D01*
X003638Y016318D01*
X003679Y016419D01*
X003679Y016528D01*
X003638Y016628D01*
X003561Y016705D01*
X003460Y016747D01*
X003351Y016747D01*
X003250Y016705D01*
X003173Y016628D01*
X003163Y016604D01*
X002042Y016604D01*
X001836Y016811D01*
X001836Y019679D01*
X002184Y020027D01*
X008971Y020027D01*
X008885Y019941D01*
X008850Y019956D01*
X008733Y019956D01*
X008625Y019911D01*
X008542Y019828D01*
X008498Y019721D01*
X008498Y019604D01*
X008542Y019496D01*
X008625Y019413D01*
X008733Y019369D01*
X008850Y019369D01*
X008958Y019413D01*
X009040Y019496D01*
X009085Y019604D01*
X009085Y019721D01*
X009070Y019756D01*
X009200Y019886D01*
X012993Y019886D01*
X012936Y019828D01*
X012891Y019721D01*
X012891Y019604D01*
X012936Y019496D01*
X013019Y019413D01*
X013127Y019369D01*
X013243Y019369D01*
X013279Y019383D01*
X013450Y019212D01*
X013947Y019212D01*
X013948Y019211D01*
X014001Y019212D01*
X014054Y019212D01*
X014055Y019213D01*
X014057Y019213D01*
X014093Y019252D01*
X014131Y019289D01*
X014131Y019291D01*
X014977Y020169D01*
X022554Y020169D01*
X022631Y020246D01*
X023331Y020946D01*
X023422Y020908D01*
X023578Y020908D01*
X023722Y020967D01*
X023833Y021078D01*
X023892Y021222D01*
X023892Y021378D01*
X023833Y021522D01*
X023722Y021633D01*
X023578Y021692D01*
X023422Y021692D01*
X023278Y021633D01*
X023167Y021522D01*
X023108Y021378D01*
X023108Y021222D01*
X023146Y021131D01*
X022446Y020431D01*
X021816Y020431D01*
X022331Y020946D01*
X022422Y020908D01*
X022578Y020908D01*
X022722Y020967D01*
X022833Y021078D01*
X022892Y021222D01*
X022892Y021378D01*
X022833Y021522D01*
X022722Y021633D01*
X022578Y021692D01*
X022422Y021692D01*
X022278Y021633D01*
X022167Y021522D01*
X022108Y021378D01*
X022108Y021222D01*
X022146Y021131D01*
X021588Y020573D01*
X020958Y020573D01*
X021331Y020946D01*
X021422Y020908D01*
X021578Y020908D01*
X021722Y020967D01*
X021833Y021078D01*
X021892Y021222D01*
X021892Y021378D01*
X021833Y021522D01*
X021722Y021633D01*
X021578Y021692D01*
X021422Y021692D01*
X021278Y021633D01*
X021167Y021522D01*
X021108Y021378D01*
X021108Y021222D01*
X021146Y021131D01*
X020729Y020714D01*
X017257Y020714D01*
X017568Y021025D01*
X017568Y021488D01*
X017491Y021565D01*
X017268Y021788D01*
X018058Y022579D01*
X018224Y022579D01*
X018167Y022522D01*
X018108Y022378D01*
X018108Y022222D01*
X018167Y022078D01*
X018278Y021967D01*
X018422Y021908D01*
X018578Y021908D01*
X018722Y021967D01*
X018833Y022078D01*
X018892Y022222D01*
X018892Y022378D01*
X018833Y022522D01*
X018776Y022579D01*
X019224Y022579D01*
X019167Y022522D01*
X019108Y022378D01*
X019108Y022222D01*
X019167Y022078D01*
X019278Y021967D01*
X019422Y021908D01*
X019578Y021908D01*
X019722Y021967D01*
X019833Y022078D01*
X019892Y022222D01*
X019892Y022378D01*
X019833Y022522D01*
X019776Y022579D01*
X020224Y022579D01*
X020167Y022522D01*
X020108Y022378D01*
X020108Y022222D01*
X020167Y022078D01*
X020278Y021967D01*
X020422Y021908D01*
X020578Y021908D01*
X020722Y021967D01*
X020833Y022078D01*
X020892Y022222D01*
X020892Y022378D01*
X020833Y022522D01*
X020776Y022579D01*
X021224Y022579D01*
X021167Y022522D01*
X021108Y022378D01*
X021108Y022222D01*
X021167Y022078D01*
X021278Y021967D01*
X021422Y021908D01*
X021578Y021908D01*
X021722Y021967D01*
X021833Y022078D01*
X021892Y022222D01*
X021892Y022378D01*
X021833Y022522D01*
X021776Y022579D01*
X022224Y022579D01*
X022167Y022522D01*
X022108Y022378D01*
X022108Y022222D01*
X022167Y022078D01*
X022278Y021967D01*
X022422Y021908D01*
X022578Y021908D01*
X022722Y021967D01*
X022833Y022078D01*
X022892Y022222D01*
X022892Y022378D01*
X022833Y022522D01*
X022776Y022579D01*
X023224Y022579D01*
X023167Y022522D01*
X023108Y022378D01*
X023108Y022222D01*
X023167Y022078D01*
X023278Y021967D01*
X023422Y021908D01*
X023578Y021908D01*
X023722Y021967D01*
X023833Y022078D01*
X023892Y022222D01*
X023892Y022378D01*
X023833Y022522D01*
X023776Y022579D01*
X024224Y022579D01*
X024167Y022522D01*
X024108Y022378D01*
X024108Y022222D01*
X024167Y022078D01*
X024278Y021967D01*
X024422Y021908D01*
X024578Y021908D01*
X024722Y021967D01*
X024833Y022078D01*
X024892Y022222D01*
X024892Y022378D01*
X024833Y022522D01*
X024776Y022579D01*
X025224Y022579D01*
X025167Y022522D01*
X025108Y022378D01*
X025108Y022222D01*
X025167Y022078D01*
X025278Y021967D01*
X025422Y021908D01*
X025578Y021908D01*
X025722Y021967D01*
X025833Y022078D01*
X025881Y022195D01*
X025881Y021405D01*
X025833Y021522D01*
X025722Y021633D01*
X025578Y021692D01*
X025422Y021692D01*
X025278Y021633D01*
X025167Y021522D01*
X025108Y021378D01*
X025108Y021222D01*
X025167Y021078D01*
X025278Y020967D01*
X025422Y020908D01*
X025578Y020908D01*
X025722Y020967D01*
X025833Y021078D01*
X025881Y021195D01*
X025881Y020188D01*
X025857Y020178D01*
X025780Y020101D01*
X025738Y020000D01*
X025738Y019891D01*
X025780Y019791D01*
X025857Y019714D01*
X025957Y019672D01*
X026066Y019672D01*
X026167Y019714D01*
X026244Y019791D01*
X026286Y019891D01*
X026286Y020000D01*
X026244Y020101D01*
X026167Y020178D01*
X026143Y020188D01*
X026143Y022480D01*
X026066Y022557D01*
X025783Y022840D01*
X017950Y022840D01*
X017873Y022764D01*
X017392Y022283D01*
X017392Y022378D01*
X017333Y022522D01*
X017222Y022633D01*
X017078Y022692D01*
X016922Y022692D01*
X016831Y022654D01*
X016721Y022764D01*
X016645Y022840D01*
X015753Y022840D01*
X015540Y022628D01*
X015464Y022551D01*
X015464Y022088D01*
X015878Y021674D01*
X015778Y021633D01*
X015715Y021570D01*
X015371Y021913D01*
X015294Y021990D01*
X015245Y021990D01*
X015333Y022078D01*
X015392Y022222D01*
X015392Y022378D01*
X015333Y022522D01*
X015222Y022633D01*
X015078Y022692D01*
X014922Y022692D01*
X014778Y022633D01*
X014667Y022522D01*
X014608Y022378D01*
X014608Y022222D01*
X014667Y022078D01*
X014755Y021990D01*
X014690Y021990D01*
X014371Y021671D01*
X014294Y021594D01*
X014294Y021560D01*
X014222Y021633D01*
X014078Y021692D01*
X013922Y021692D01*
X013778Y021633D01*
X013667Y021522D01*
X013608Y021378D01*
X013608Y021222D01*
X013667Y021078D01*
X013778Y020967D01*
X013922Y020908D01*
X014033Y020908D01*
X013698Y020573D01*
X012458Y020573D01*
X012831Y020946D01*
X012922Y020908D01*
X013078Y020908D01*
X013222Y020967D01*
X013333Y021078D01*
X013392Y021222D01*
X013392Y021378D01*
X013333Y021522D01*
X013222Y021633D01*
X013078Y021692D01*
X012922Y021692D01*
X012778Y021633D01*
X012667Y021522D01*
X012608Y021378D01*
X012608Y021222D01*
X012646Y021131D01*
X012229Y020714D01*
X005262Y020714D01*
X005340Y020747D01*
X005451Y020857D01*
X005510Y021001D01*
X005510Y021158D01*
X005451Y021302D01*
X005340Y021412D01*
X005196Y021472D01*
X005040Y021472D01*
X004896Y021412D01*
X004786Y021302D01*
X004726Y021158D01*
X004726Y021001D01*
X004786Y020857D01*
X004896Y020747D01*
X004975Y020714D01*
X004351Y020714D01*
X004400Y020750D01*
X004448Y020798D01*
X004488Y020853D01*
X004519Y020914D01*
X004540Y020978D01*
X004550Y021044D01*
X004154Y021044D01*
X004154Y021115D01*
X004550Y021115D01*
X004540Y021181D01*
X004519Y021245D01*
X004488Y021306D01*
X004448Y021361D01*
X004400Y021409D01*
X004345Y021449D01*
X004284Y021480D01*
X004219Y021501D01*
X004154Y021512D01*
X004154Y021115D01*
X004083Y021115D01*
X004083Y021512D01*
X004017Y021501D01*
X003952Y021480D01*
X003892Y021449D01*
X003836Y021409D01*
X003788Y021361D01*
X003748Y021306D01*
X003717Y021245D01*
X003696Y021181D01*
X003686Y021115D01*
X004083Y021115D01*
X004083Y021044D01*
X003686Y021044D01*
X003696Y020978D01*
X003717Y020914D01*
X003748Y020853D01*
X003788Y020798D01*
X003836Y020750D01*
X003885Y020714D01*
X003262Y020714D01*
X003340Y020747D01*
X003451Y020857D01*
X003510Y021001D01*
X003510Y021158D01*
X003451Y021302D01*
X003340Y021412D01*
X003196Y021472D01*
X003040Y021472D01*
X002896Y021412D01*
X002786Y021302D01*
X002726Y021158D01*
X002726Y021001D01*
X002786Y020857D01*
X002896Y020747D01*
X002975Y020714D01*
X002262Y020714D01*
X002340Y020747D01*
X002451Y020857D01*
X002510Y021001D01*
X002510Y021158D01*
X002451Y021302D01*
X002340Y021412D01*
X002196Y021472D01*
X002040Y021472D01*
X001896Y021412D01*
X001786Y021302D01*
X001726Y021158D01*
X001726Y021001D01*
X001786Y020857D01*
X001896Y020747D01*
X001975Y020714D01*
X001863Y020714D01*
X001225Y020077D01*
X001149Y020000D01*
X001149Y010962D01*
X001503Y010608D01*
X001580Y010531D01*
X003730Y010531D01*
X003740Y010507D01*
X003817Y010430D01*
X003762Y010485D02*
X001173Y010485D01*
X001104Y010555D02*
X001556Y010555D01*
X001487Y010624D02*
X001034Y010624D01*
X000965Y010693D02*
X001418Y010693D01*
X001348Y010763D02*
X000935Y010763D01*
X000935Y010832D02*
X001279Y010832D01*
X001210Y010901D02*
X000935Y010901D01*
X000935Y010971D02*
X001149Y010971D01*
X001149Y011040D02*
X000935Y011040D01*
X000935Y011110D02*
X001149Y011110D01*
X001149Y011179D02*
X000935Y011179D01*
X000935Y011248D02*
X001149Y011248D01*
X001149Y011318D02*
X000935Y011318D01*
X000935Y011387D02*
X001149Y011387D01*
X001149Y011456D02*
X000935Y011456D01*
X000935Y011526D02*
X001149Y011526D01*
X001149Y011595D02*
X000935Y011595D01*
X000935Y011664D02*
X001149Y011664D01*
X001149Y011734D02*
X000935Y011734D01*
X000935Y011803D02*
X001149Y011803D01*
X001149Y011873D02*
X000935Y011873D01*
X000935Y011942D02*
X001149Y011942D01*
X001149Y012011D02*
X000935Y012011D01*
X000935Y012081D02*
X001149Y012081D01*
X001149Y012150D02*
X000935Y012150D01*
X000935Y012219D02*
X001149Y012219D01*
X001149Y012289D02*
X000935Y012289D01*
X000935Y012358D02*
X001149Y012358D01*
X001149Y012427D02*
X000935Y012427D01*
X000935Y012497D02*
X001149Y012497D01*
X001149Y012566D02*
X000935Y012566D01*
X000935Y012636D02*
X001149Y012636D01*
X001149Y012705D02*
X000935Y012705D01*
X000935Y012774D02*
X001149Y012774D01*
X001149Y012844D02*
X000935Y012844D01*
X000935Y012913D02*
X001149Y012913D01*
X001149Y012982D02*
X000935Y012982D01*
X000935Y013052D02*
X001149Y013052D01*
X001149Y013121D02*
X000935Y013121D01*
X000935Y013191D02*
X001149Y013191D01*
X001149Y013260D02*
X000935Y013260D01*
X000935Y013329D02*
X001149Y013329D01*
X001149Y013399D02*
X000935Y013399D01*
X000935Y013468D02*
X001149Y013468D01*
X001149Y013537D02*
X000935Y013537D01*
X000935Y013607D02*
X001149Y013607D01*
X001149Y013676D02*
X000935Y013676D01*
X000935Y013745D02*
X001149Y013745D01*
X001149Y013815D02*
X000935Y013815D01*
X000935Y013884D02*
X001149Y013884D01*
X001149Y013954D02*
X000935Y013954D01*
X000935Y014023D02*
X001149Y014023D01*
X001149Y014092D02*
X000935Y014092D01*
X000935Y014162D02*
X001149Y014162D01*
X001149Y014231D02*
X000935Y014231D01*
X000935Y014300D02*
X001149Y014300D01*
X001149Y014370D02*
X000935Y014370D01*
X000935Y014439D02*
X001149Y014439D01*
X001149Y014508D02*
X000935Y014508D01*
X000935Y014578D02*
X001149Y014578D01*
X001149Y014647D02*
X000935Y014647D01*
X000935Y014717D02*
X001149Y014717D01*
X001149Y014786D02*
X000935Y014786D01*
X000935Y014855D02*
X001149Y014855D01*
X001149Y014925D02*
X000935Y014925D01*
X000935Y014994D02*
X001149Y014994D01*
X001149Y015063D02*
X000935Y015063D01*
X000935Y015133D02*
X001149Y015133D01*
X001149Y015202D02*
X000935Y015202D01*
X000935Y015272D02*
X001149Y015272D01*
X001149Y015341D02*
X000935Y015341D01*
X000935Y015410D02*
X001149Y015410D01*
X001149Y015480D02*
X000935Y015480D01*
X000935Y015549D02*
X001149Y015549D01*
X001149Y015618D02*
X000935Y015618D01*
X000935Y015688D02*
X001149Y015688D01*
X001149Y015757D02*
X000935Y015757D01*
X000935Y015826D02*
X001149Y015826D01*
X001149Y015896D02*
X000935Y015896D01*
X000935Y015965D02*
X001149Y015965D01*
X001149Y016035D02*
X000935Y016035D01*
X000935Y016104D02*
X001149Y016104D01*
X001149Y016173D02*
X000935Y016173D01*
X000935Y016243D02*
X001149Y016243D01*
X001149Y016312D02*
X000935Y016312D01*
X000935Y016381D02*
X001149Y016381D01*
X001149Y016451D02*
X000935Y016451D01*
X000935Y016520D02*
X001149Y016520D01*
X001149Y016589D02*
X000935Y016589D01*
X000935Y016659D02*
X001149Y016659D01*
X001149Y016728D02*
X000935Y016728D01*
X000935Y016798D02*
X001149Y016798D01*
X001149Y016867D02*
X000935Y016867D01*
X000935Y016936D02*
X001149Y016936D01*
X001149Y017006D02*
X000935Y017006D01*
X000935Y017075D02*
X001149Y017075D01*
X001149Y017144D02*
X000935Y017144D01*
X000935Y017214D02*
X001149Y017214D01*
X001149Y017283D02*
X000935Y017283D01*
X000935Y017353D02*
X001149Y017353D01*
X001149Y017422D02*
X000935Y017422D01*
X000935Y017491D02*
X001149Y017491D01*
X001149Y017561D02*
X000935Y017561D01*
X000935Y017630D02*
X001149Y017630D01*
X001149Y017699D02*
X000935Y017699D01*
X000935Y017769D02*
X001149Y017769D01*
X001149Y017838D02*
X000935Y017838D01*
X000935Y017907D02*
X001149Y017907D01*
X001149Y017977D02*
X000935Y017977D01*
X000935Y018046D02*
X001149Y018046D01*
X001149Y018116D02*
X000935Y018116D01*
X000935Y018185D02*
X001149Y018185D01*
X001149Y018254D02*
X000935Y018254D01*
X000935Y018324D02*
X001149Y018324D01*
X001149Y018393D02*
X000935Y018393D01*
X000935Y018462D02*
X001149Y018462D01*
X001149Y018532D02*
X000935Y018532D01*
X000935Y018601D02*
X001149Y018601D01*
X001149Y018670D02*
X000935Y018670D01*
X000935Y018740D02*
X001149Y018740D01*
X001149Y018809D02*
X000935Y018809D01*
X000935Y018879D02*
X001149Y018879D01*
X001149Y018948D02*
X000935Y018948D01*
X000935Y019017D02*
X001149Y019017D01*
X001149Y019087D02*
X000935Y019087D01*
X000935Y019156D02*
X001149Y019156D01*
X001149Y019225D02*
X000935Y019225D01*
X000935Y019295D02*
X001149Y019295D01*
X001149Y019364D02*
X000935Y019364D01*
X000935Y019433D02*
X001149Y019433D01*
X001149Y019503D02*
X000935Y019503D01*
X000935Y019572D02*
X001149Y019572D01*
X001149Y019642D02*
X000935Y019642D01*
X000935Y019711D02*
X001149Y019711D01*
X001149Y019780D02*
X000935Y019780D01*
X000935Y019850D02*
X001149Y019850D01*
X001149Y019919D02*
X000935Y019919D01*
X000935Y019988D02*
X001149Y019988D01*
X001207Y020058D02*
X000935Y020058D01*
X000935Y020127D02*
X001276Y020127D01*
X001345Y020197D02*
X000935Y020197D01*
X000935Y020266D02*
X001415Y020266D01*
X001484Y020335D02*
X000935Y020335D01*
X000935Y020405D02*
X001553Y020405D01*
X001623Y020474D02*
X000935Y020474D01*
X000935Y020543D02*
X001692Y020543D01*
X001762Y020613D02*
X000935Y020613D01*
X000935Y020682D02*
X001831Y020682D01*
X001891Y020751D02*
X000935Y020751D01*
X000935Y020821D02*
X001822Y020821D01*
X001772Y020890D02*
X000935Y020890D01*
X000935Y020960D02*
X001743Y020960D01*
X001726Y021029D02*
X000935Y021029D01*
X000935Y021098D02*
X001726Y021098D01*
X001730Y021168D02*
X000935Y021168D01*
X000935Y021237D02*
X001759Y021237D01*
X001790Y021306D02*
X000935Y021306D01*
X000935Y021376D02*
X001860Y021376D01*
X001976Y021445D02*
X000935Y021445D01*
X000935Y021514D02*
X005779Y021514D01*
X005710Y021584D02*
X000935Y021584D01*
X000935Y021653D02*
X005643Y021653D01*
X005603Y021723D02*
X000935Y021723D01*
X000935Y021792D02*
X005563Y021792D01*
X005523Y021861D02*
X000935Y021861D01*
X000935Y021931D02*
X005496Y021931D01*
X005477Y022000D02*
X000935Y022000D01*
X000935Y022069D02*
X005459Y022069D01*
X005440Y022139D02*
X000935Y022139D01*
X000935Y022208D02*
X005435Y022208D01*
X005435Y022278D02*
X000935Y022278D01*
X000935Y022347D02*
X005435Y022347D01*
X005435Y022416D02*
X000935Y022416D01*
X000935Y022486D02*
X005447Y022486D01*
X005465Y022555D02*
X000935Y022555D01*
X000940Y022624D02*
X005484Y022624D01*
X005503Y022694D02*
X001010Y022694D01*
X001079Y022763D02*
X005537Y022763D01*
X005577Y022832D02*
X001148Y022832D01*
X002261Y021445D02*
X002976Y021445D01*
X002860Y021376D02*
X002377Y021376D01*
X002446Y021306D02*
X002790Y021306D01*
X002759Y021237D02*
X002477Y021237D01*
X002506Y021168D02*
X002730Y021168D01*
X002726Y021098D02*
X002510Y021098D01*
X002510Y021029D02*
X002726Y021029D01*
X002743Y020960D02*
X002493Y020960D01*
X002464Y020890D02*
X002772Y020890D01*
X002822Y020821D02*
X002414Y020821D01*
X002345Y020751D02*
X002891Y020751D01*
X003345Y020751D02*
X003835Y020751D01*
X003772Y020821D02*
X003414Y020821D01*
X003464Y020890D02*
X003729Y020890D01*
X003703Y020960D02*
X003493Y020960D01*
X003510Y021029D02*
X003688Y021029D01*
X003694Y021168D02*
X003506Y021168D01*
X003510Y021098D02*
X004083Y021098D01*
X004083Y021168D02*
X004154Y021168D01*
X004154Y021237D02*
X004083Y021237D01*
X004083Y021306D02*
X004154Y021306D01*
X004154Y021376D02*
X004083Y021376D01*
X004083Y021445D02*
X004154Y021445D01*
X004350Y021445D02*
X004976Y021445D01*
X004860Y021376D02*
X004433Y021376D01*
X004488Y021306D02*
X004790Y021306D01*
X004759Y021237D02*
X004521Y021237D01*
X004542Y021168D02*
X004730Y021168D01*
X004726Y021098D02*
X004154Y021098D01*
X004401Y020751D02*
X004891Y020751D01*
X004822Y020821D02*
X004464Y020821D01*
X004507Y020890D02*
X004772Y020890D01*
X004743Y020960D02*
X004534Y020960D01*
X004548Y021029D02*
X004726Y021029D01*
X005261Y021445D02*
X005850Y021445D01*
X005970Y021376D02*
X005377Y021376D01*
X005446Y021306D02*
X006092Y021306D01*
X006351Y021237D02*
X005477Y021237D01*
X005506Y021168D02*
X009630Y021168D01*
X009608Y021222D02*
X009667Y021078D01*
X009778Y020967D01*
X009922Y020908D01*
X010078Y020908D01*
X010222Y020967D01*
X010333Y021078D01*
X010392Y021222D01*
X010392Y021378D01*
X010333Y021522D01*
X010222Y021633D01*
X010078Y021692D01*
X009922Y021692D01*
X009778Y021633D01*
X009667Y021522D01*
X009608Y021378D01*
X009608Y021222D01*
X009608Y021237D02*
X006649Y021237D01*
X006908Y021306D02*
X009608Y021306D01*
X009608Y021376D02*
X007030Y021376D01*
X007150Y021445D02*
X009636Y021445D01*
X009664Y021514D02*
X007221Y021514D01*
X007290Y021584D02*
X009729Y021584D01*
X009828Y021653D02*
X007357Y021653D01*
X007397Y021723D02*
X014423Y021723D01*
X014492Y021792D02*
X007437Y021792D01*
X007477Y021861D02*
X014561Y021861D01*
X014631Y021931D02*
X014133Y021931D01*
X014078Y021908D02*
X014222Y021967D01*
X014333Y022078D01*
X014392Y022222D01*
X014392Y022378D01*
X014333Y022522D01*
X014222Y022633D01*
X014078Y022692D01*
X013922Y022692D01*
X013778Y022633D01*
X013667Y022522D01*
X013608Y022378D01*
X013608Y022222D01*
X013667Y022078D01*
X013778Y021967D01*
X013922Y021908D01*
X014078Y021908D01*
X014255Y022000D02*
X014745Y022000D01*
X014676Y022069D02*
X014324Y022069D01*
X014358Y022139D02*
X014642Y022139D01*
X014613Y022208D02*
X014387Y022208D01*
X014392Y022278D02*
X014608Y022278D01*
X014608Y022347D02*
X014392Y022347D01*
X014376Y022416D02*
X014624Y022416D01*
X014652Y022486D02*
X014348Y022486D01*
X014300Y022555D02*
X014700Y022555D01*
X014770Y022624D02*
X014230Y022624D01*
X013770Y022624D02*
X013230Y022624D01*
X013222Y022633D02*
X013078Y022692D01*
X012922Y022692D01*
X012778Y022633D01*
X012667Y022522D01*
X012608Y022378D01*
X012608Y022222D01*
X012667Y022078D01*
X012778Y021967D01*
X012922Y021908D01*
X013078Y021908D01*
X013222Y021967D01*
X013333Y022078D01*
X013392Y022222D01*
X013392Y022378D01*
X013333Y022522D01*
X013222Y022633D01*
X013300Y022555D02*
X013700Y022555D01*
X013652Y022486D02*
X013348Y022486D01*
X013376Y022416D02*
X013624Y022416D01*
X013608Y022347D02*
X013392Y022347D01*
X013392Y022278D02*
X013608Y022278D01*
X013613Y022208D02*
X013387Y022208D01*
X013358Y022139D02*
X013642Y022139D01*
X013676Y022069D02*
X013324Y022069D01*
X013255Y022000D02*
X013745Y022000D01*
X013867Y021931D02*
X013133Y021931D01*
X012867Y021931D02*
X012133Y021931D01*
X012078Y021908D02*
X012222Y021967D01*
X012333Y022078D01*
X012392Y022222D01*
X012392Y022378D01*
X012333Y022522D01*
X012222Y022633D01*
X012078Y022692D01*
X011922Y022692D01*
X011778Y022633D01*
X011667Y022522D01*
X011608Y022378D01*
X011608Y022222D01*
X011667Y022078D01*
X011778Y021967D01*
X011922Y021908D01*
X012078Y021908D01*
X012255Y022000D02*
X012745Y022000D01*
X012676Y022069D02*
X012324Y022069D01*
X012358Y022139D02*
X012642Y022139D01*
X012613Y022208D02*
X012387Y022208D01*
X012392Y022278D02*
X012608Y022278D01*
X012608Y022347D02*
X012392Y022347D01*
X012376Y022416D02*
X012624Y022416D01*
X012652Y022486D02*
X012348Y022486D01*
X012300Y022555D02*
X012700Y022555D01*
X012770Y022624D02*
X012230Y022624D01*
X011770Y022624D02*
X011287Y022624D01*
X011282Y022630D02*
X011227Y022670D01*
X011166Y022701D01*
X011101Y022722D01*
X011035Y022732D01*
X011035Y022335D01*
X011432Y022335D01*
X011422Y022401D01*
X011401Y022466D01*
X011370Y022527D01*
X011330Y022582D01*
X011282Y022630D01*
X011349Y022555D02*
X011700Y022555D01*
X011652Y022486D02*
X011391Y022486D01*
X011417Y022416D02*
X011624Y022416D01*
X011608Y022347D02*
X011430Y022347D01*
X011432Y022265D02*
X011035Y022265D01*
X011035Y021868D01*
X011101Y021878D01*
X011166Y021899D01*
X011227Y021930D01*
X011282Y021970D01*
X011330Y022018D01*
X011370Y022073D01*
X011401Y022134D01*
X011422Y022199D01*
X011432Y022265D01*
X011423Y022208D02*
X011613Y022208D01*
X011608Y022278D02*
X011035Y022278D01*
X011035Y022265D02*
X011035Y022335D01*
X010965Y022335D01*
X010965Y022265D01*
X011035Y022265D01*
X011035Y022208D02*
X010965Y022208D01*
X010965Y022265D02*
X010965Y021868D01*
X010899Y021878D01*
X010834Y021899D01*
X010773Y021930D01*
X010718Y021970D01*
X010670Y022018D01*
X010630Y022073D01*
X010599Y022134D01*
X010578Y022199D01*
X010568Y022265D01*
X010965Y022265D01*
X010965Y022278D02*
X010392Y022278D01*
X010392Y022222D02*
X010333Y022078D01*
X010222Y021967D01*
X010078Y021908D01*
X009922Y021908D01*
X009778Y021967D01*
X009667Y022078D01*
X009608Y022222D01*
X009608Y022378D01*
X009667Y022522D01*
X009778Y022633D01*
X009922Y022692D01*
X010078Y022692D01*
X010222Y022633D01*
X010333Y022522D01*
X010392Y022378D01*
X010392Y022222D01*
X010387Y022208D02*
X010577Y022208D01*
X010598Y022139D02*
X010358Y022139D01*
X010324Y022069D02*
X010633Y022069D01*
X010689Y022000D02*
X010255Y022000D01*
X010133Y021931D02*
X010773Y021931D01*
X010965Y021931D02*
X011035Y021931D01*
X011035Y022000D02*
X010965Y022000D01*
X010965Y022069D02*
X011035Y022069D01*
X011035Y022139D02*
X010965Y022139D01*
X010965Y022335D02*
X010568Y022335D01*
X010578Y022401D01*
X010599Y022466D01*
X010630Y022527D01*
X010670Y022582D01*
X010718Y022630D01*
X010773Y022670D01*
X010834Y022701D01*
X010899Y022722D01*
X010965Y022732D01*
X010965Y022335D01*
X010965Y022347D02*
X011035Y022347D01*
X011035Y022416D02*
X010965Y022416D01*
X010965Y022486D02*
X011035Y022486D01*
X011035Y022555D02*
X010965Y022555D01*
X010965Y022624D02*
X011035Y022624D01*
X011035Y022694D02*
X010965Y022694D01*
X010821Y022694D02*
X007497Y022694D01*
X007516Y022624D02*
X009770Y022624D01*
X009700Y022555D02*
X007535Y022555D01*
X007553Y022486D02*
X009652Y022486D01*
X009624Y022416D02*
X007565Y022416D01*
X007565Y022347D02*
X009608Y022347D01*
X009608Y022278D02*
X007565Y022278D01*
X007565Y022208D02*
X009613Y022208D01*
X009642Y022139D02*
X007560Y022139D01*
X007541Y022069D02*
X009676Y022069D01*
X009745Y022000D02*
X007523Y022000D01*
X007504Y021931D02*
X009867Y021931D01*
X010392Y022347D02*
X010570Y022347D01*
X010583Y022416D02*
X010376Y022416D01*
X010348Y022486D02*
X010609Y022486D01*
X010651Y022555D02*
X010300Y022555D01*
X010230Y022624D02*
X010713Y022624D01*
X011179Y022694D02*
X015606Y022694D01*
X015537Y022624D02*
X015230Y022624D01*
X015300Y022555D02*
X015468Y022555D01*
X015464Y022486D02*
X015348Y022486D01*
X015376Y022416D02*
X015464Y022416D01*
X015464Y022347D02*
X015392Y022347D01*
X015392Y022278D02*
X015464Y022278D01*
X015464Y022208D02*
X015387Y022208D01*
X015358Y022139D02*
X015464Y022139D01*
X015483Y022069D02*
X015324Y022069D01*
X015255Y022000D02*
X015552Y022000D01*
X015621Y021931D02*
X015354Y021931D01*
X015423Y021861D02*
X015691Y021861D01*
X015760Y021792D02*
X015492Y021792D01*
X015562Y021723D02*
X015829Y021723D01*
X015828Y021653D02*
X015631Y021653D01*
X015700Y021584D02*
X015729Y021584D01*
X015594Y021505D02*
X015240Y021859D01*
X014744Y021859D01*
X014425Y021540D01*
X014425Y021115D01*
X013752Y020442D01*
X001988Y020442D01*
X001421Y019875D01*
X001421Y012717D01*
X001563Y012576D01*
X005957Y012576D01*
X006145Y012774D02*
X027065Y012774D01*
X027065Y012705D02*
X026653Y012705D01*
X026666Y012701D02*
X026601Y012722D01*
X026535Y012732D01*
X026535Y012335D01*
X026932Y012335D01*
X026922Y012401D01*
X026901Y012466D01*
X026870Y012527D01*
X026830Y012582D01*
X026782Y012630D01*
X026727Y012670D01*
X026666Y012701D01*
X026774Y012636D02*
X027065Y012636D01*
X027065Y012566D02*
X026841Y012566D01*
X026885Y012497D02*
X027065Y012497D01*
X027065Y012427D02*
X026913Y012427D01*
X026928Y012358D02*
X027065Y012358D01*
X027065Y012289D02*
X026535Y012289D01*
X026535Y012265D02*
X026535Y012335D01*
X026465Y012335D01*
X026465Y012265D01*
X026535Y012265D01*
X026535Y011868D01*
X026601Y011878D01*
X026666Y011899D01*
X026727Y011930D01*
X026782Y011970D01*
X026830Y012018D01*
X026870Y012073D01*
X026901Y012134D01*
X026922Y012199D01*
X026932Y012265D01*
X026535Y012265D01*
X026535Y012219D02*
X026465Y012219D01*
X026465Y012265D02*
X026465Y011868D01*
X026399Y011878D01*
X026334Y011899D01*
X026273Y011930D01*
X026218Y011970D01*
X026170Y012018D01*
X026130Y012073D01*
X026099Y012134D01*
X026078Y012199D01*
X026068Y012265D01*
X026465Y012265D01*
X026465Y012289D02*
X025892Y012289D01*
X025892Y012222D02*
X025833Y012078D01*
X025722Y011967D01*
X025578Y011908D01*
X025422Y011908D01*
X025278Y011967D01*
X025167Y012078D01*
X025108Y012222D01*
X025108Y012378D01*
X025167Y012522D01*
X025278Y012633D01*
X025422Y012692D01*
X025578Y012692D01*
X025722Y012633D01*
X025833Y012522D01*
X025892Y012378D01*
X025892Y012222D01*
X025891Y012219D02*
X026075Y012219D01*
X026094Y012150D02*
X025862Y012150D01*
X025834Y012081D02*
X026127Y012081D01*
X026177Y012011D02*
X025766Y012011D01*
X025661Y011942D02*
X026257Y011942D01*
X026435Y011873D02*
X001410Y011873D01*
X001410Y011942D02*
X025339Y011942D01*
X025234Y012011D02*
X001410Y012011D01*
X001410Y012081D02*
X025166Y012081D01*
X025138Y012150D02*
X001410Y012150D01*
X001410Y012219D02*
X025109Y012219D01*
X025108Y012289D02*
X001410Y012289D01*
X001410Y012358D02*
X005787Y012358D01*
X005722Y012427D02*
X001410Y012427D01*
X001410Y012497D02*
X001457Y012497D01*
X001552Y012774D02*
X005768Y012774D01*
X005888Y012844D02*
X001552Y012844D01*
X001552Y012913D02*
X025409Y012913D01*
X025422Y012908D02*
X025578Y012908D01*
X025722Y012967D01*
X025833Y013078D01*
X025892Y013222D01*
X025892Y013378D01*
X025833Y013522D01*
X025722Y013633D01*
X025578Y013692D01*
X025422Y013692D01*
X025278Y013633D01*
X025167Y013522D01*
X025108Y013378D01*
X025108Y013222D01*
X025167Y013078D01*
X025278Y012967D01*
X025422Y012908D01*
X025591Y012913D02*
X026409Y012913D01*
X026422Y012908D02*
X026578Y012908D01*
X026722Y012967D01*
X026833Y013078D01*
X026892Y013222D01*
X026892Y013378D01*
X026833Y013522D01*
X026722Y013633D01*
X026578Y013692D01*
X026422Y013692D01*
X026278Y013633D01*
X026167Y013522D01*
X026108Y013378D01*
X026108Y013222D01*
X026167Y013078D01*
X026278Y012967D01*
X026422Y012908D01*
X026591Y012913D02*
X027065Y012913D01*
X027065Y012844D02*
X006025Y012844D01*
X006200Y012705D02*
X026347Y012705D01*
X026334Y012701D02*
X026273Y012670D01*
X026218Y012630D01*
X026170Y012582D01*
X026130Y012527D01*
X026099Y012466D01*
X026078Y012401D01*
X026068Y012335D01*
X026465Y012335D01*
X026465Y012732D01*
X026399Y012722D01*
X026334Y012701D01*
X026226Y012636D02*
X025715Y012636D01*
X025789Y012566D02*
X026159Y012566D01*
X026115Y012497D02*
X025843Y012497D01*
X025872Y012427D02*
X026087Y012427D01*
X026072Y012358D02*
X025892Y012358D01*
X026465Y012358D02*
X026535Y012358D01*
X026535Y012427D02*
X026465Y012427D01*
X026465Y012497D02*
X026535Y012497D01*
X026535Y012566D02*
X026465Y012566D01*
X026465Y012636D02*
X026535Y012636D01*
X026535Y012705D02*
X026465Y012705D01*
X026263Y012982D02*
X025737Y012982D01*
X025807Y013052D02*
X026193Y013052D01*
X026149Y013121D02*
X025851Y013121D01*
X025879Y013191D02*
X026121Y013191D01*
X026108Y013260D02*
X025892Y013260D01*
X025892Y013329D02*
X026108Y013329D01*
X026116Y013399D02*
X025884Y013399D01*
X025855Y013468D02*
X026145Y013468D01*
X026183Y013537D02*
X025817Y013537D01*
X025748Y013607D02*
X026252Y013607D01*
X026383Y013676D02*
X025617Y013676D01*
X025383Y013676D02*
X001552Y013676D01*
X001552Y013607D02*
X025252Y013607D01*
X025183Y013537D02*
X001552Y013537D01*
X001552Y013468D02*
X025145Y013468D01*
X025116Y013399D02*
X001552Y013399D01*
X001552Y013329D02*
X025108Y013329D01*
X025108Y013260D02*
X001552Y013260D01*
X001552Y013191D02*
X025121Y013191D01*
X025149Y013121D02*
X001552Y013121D01*
X001552Y013052D02*
X025193Y013052D01*
X025263Y012982D02*
X001552Y012982D01*
X001552Y013745D02*
X027065Y013745D01*
X027065Y013676D02*
X026617Y013676D01*
X026748Y013607D02*
X027065Y013607D01*
X027065Y013537D02*
X026817Y013537D01*
X026855Y013468D02*
X027065Y013468D01*
X027065Y013399D02*
X026884Y013399D01*
X026892Y013329D02*
X027065Y013329D01*
X027065Y013260D02*
X026892Y013260D01*
X026879Y013191D02*
X027065Y013191D01*
X027065Y013121D02*
X026851Y013121D01*
X026807Y013052D02*
X027065Y013052D01*
X027065Y012982D02*
X026737Y012982D01*
X026925Y012219D02*
X027065Y012219D01*
X027065Y012150D02*
X026906Y012150D01*
X026873Y012081D02*
X027065Y012081D01*
X027065Y012011D02*
X026823Y012011D01*
X026743Y011942D02*
X027065Y011942D01*
X027065Y011873D02*
X026565Y011873D01*
X026535Y011873D02*
X026465Y011873D01*
X026465Y011942D02*
X026535Y011942D01*
X026535Y012011D02*
X026465Y012011D01*
X026465Y012081D02*
X026535Y012081D01*
X026535Y012150D02*
X026465Y012150D01*
X027065Y011803D02*
X001410Y011803D01*
X001410Y011734D02*
X027065Y011734D01*
X027065Y011664D02*
X001410Y011664D01*
X001410Y011595D02*
X027065Y011595D01*
X027065Y011526D02*
X001410Y011526D01*
X001410Y011456D02*
X027065Y011456D01*
X027065Y011387D02*
X001410Y011387D01*
X001410Y011318D02*
X027065Y011318D01*
X027065Y011248D02*
X001410Y011248D01*
X001410Y011179D02*
X027065Y011179D01*
X027065Y011110D02*
X001410Y011110D01*
X001441Y011040D02*
X027065Y011040D01*
X027065Y010971D02*
X001510Y010971D01*
X001580Y010901D02*
X003834Y010901D01*
X003755Y010832D02*
X001649Y010832D01*
X001634Y010662D02*
X003972Y010662D01*
X004224Y010555D02*
X027065Y010555D01*
X027065Y010624D02*
X004246Y010624D01*
X004246Y010693D02*
X027065Y010693D01*
X027065Y010763D02*
X004227Y010763D01*
X004190Y010832D02*
X027065Y010832D01*
X027065Y010901D02*
X004111Y010901D01*
X004183Y010485D02*
X027065Y010485D01*
X027065Y010416D02*
X004093Y010416D01*
X006127Y012358D02*
X025108Y012358D01*
X025128Y012427D02*
X006192Y012427D01*
X006221Y012497D02*
X025157Y012497D01*
X025211Y012566D02*
X006231Y012566D01*
X006228Y012636D02*
X025285Y012636D01*
X025422Y013908D02*
X025578Y013908D01*
X025722Y013967D01*
X025833Y014078D01*
X025892Y014222D01*
X025892Y014378D01*
X025833Y014522D01*
X025722Y014633D01*
X025578Y014692D01*
X025422Y014692D01*
X025278Y014633D01*
X025167Y014522D01*
X025108Y014378D01*
X025108Y014222D01*
X025167Y014078D01*
X025278Y013967D01*
X025422Y013908D01*
X025311Y013954D02*
X001552Y013954D01*
X001552Y014023D02*
X025222Y014023D01*
X025161Y014092D02*
X001552Y014092D01*
X001552Y014162D02*
X025133Y014162D01*
X025108Y014231D02*
X001552Y014231D01*
X001552Y014300D02*
X025108Y014300D01*
X025108Y014370D02*
X001552Y014370D01*
X001552Y014439D02*
X025133Y014439D01*
X025162Y014508D02*
X001552Y014508D01*
X001552Y014578D02*
X025223Y014578D01*
X025313Y014647D02*
X001552Y014647D01*
X001552Y014717D02*
X027065Y014717D01*
X027065Y014786D02*
X001552Y014786D01*
X001552Y014855D02*
X027065Y014855D01*
X027065Y014925D02*
X001552Y014925D01*
X001552Y014994D02*
X027065Y014994D01*
X027065Y015063D02*
X003871Y015063D01*
X003929Y015133D02*
X027065Y015133D01*
X027065Y015202D02*
X003958Y015202D01*
X003963Y015272D02*
X026222Y015272D01*
X026031Y015341D02*
X003955Y015341D01*
X003927Y015410D02*
X025910Y015410D01*
X025814Y015480D02*
X003865Y015480D01*
X003689Y015269D02*
X001917Y015269D01*
X001563Y015623D01*
X001563Y019804D01*
X002059Y020300D01*
X013823Y020300D01*
X014567Y021044D01*
X014567Y021469D01*
X014815Y021717D01*
X015169Y021717D01*
X015453Y021434D01*
X015453Y021009D01*
X015736Y020725D01*
X017083Y020725D01*
X017437Y021080D01*
X017437Y021434D01*
X017154Y021717D01*
X016020Y021717D01*
X015594Y022143D01*
X015594Y022497D01*
X015807Y022709D01*
X016591Y022709D01*
X017000Y022300D01*
X017300Y022555D02*
X017664Y022555D01*
X017595Y022486D02*
X017348Y022486D01*
X017376Y022416D02*
X017526Y022416D01*
X017456Y022347D02*
X017392Y022347D01*
X017618Y022139D02*
X018142Y022139D01*
X018113Y022208D02*
X017688Y022208D01*
X017757Y022278D02*
X018108Y022278D01*
X018108Y022347D02*
X017826Y022347D01*
X017896Y022416D02*
X018124Y022416D01*
X018152Y022486D02*
X017965Y022486D01*
X018035Y022555D02*
X018200Y022555D01*
X018004Y022709D02*
X025728Y022709D01*
X026012Y022426D01*
X026012Y020017D01*
X026083Y019946D01*
X026012Y019946D01*
X026262Y020058D02*
X027065Y020058D01*
X027065Y020127D02*
X026218Y020127D01*
X026143Y020197D02*
X027065Y020197D01*
X027065Y020266D02*
X026143Y020266D01*
X026143Y020335D02*
X027065Y020335D01*
X027065Y020405D02*
X026143Y020405D01*
X026143Y020474D02*
X027065Y020474D01*
X027065Y020543D02*
X026143Y020543D01*
X026143Y020613D02*
X027065Y020613D01*
X027065Y020682D02*
X026143Y020682D01*
X026143Y020751D02*
X027065Y020751D01*
X027065Y020821D02*
X026143Y020821D01*
X026143Y020890D02*
X027065Y020890D01*
X027065Y020960D02*
X026143Y020960D01*
X026143Y021029D02*
X027065Y021029D01*
X027065Y021098D02*
X026143Y021098D01*
X026143Y021168D02*
X027065Y021168D01*
X027065Y021237D02*
X026143Y021237D01*
X026143Y021306D02*
X027065Y021306D01*
X027065Y021376D02*
X026143Y021376D01*
X026143Y021445D02*
X027065Y021445D01*
X027065Y021514D02*
X026143Y021514D01*
X026143Y021584D02*
X027065Y021584D01*
X027065Y021653D02*
X026143Y021653D01*
X026143Y021723D02*
X027065Y021723D01*
X027065Y021792D02*
X026143Y021792D01*
X026143Y021861D02*
X027065Y021861D01*
X027065Y021931D02*
X026143Y021931D01*
X026143Y022000D02*
X027065Y022000D01*
X027065Y022069D02*
X026143Y022069D01*
X026143Y022139D02*
X027065Y022139D01*
X027065Y022208D02*
X026143Y022208D01*
X026143Y022278D02*
X027065Y022278D01*
X027065Y022347D02*
X026143Y022347D01*
X026143Y022416D02*
X027065Y022416D01*
X027065Y022486D02*
X026137Y022486D01*
X026068Y022555D02*
X027065Y022555D01*
X027060Y022624D02*
X025999Y022624D01*
X025929Y022694D02*
X026990Y022694D01*
X026921Y022763D02*
X025860Y022763D01*
X025790Y022832D02*
X026852Y022832D01*
X025881Y022139D02*
X025858Y022139D01*
X025881Y022069D02*
X025824Y022069D01*
X025881Y022000D02*
X025755Y022000D01*
X025633Y021931D02*
X025881Y021931D01*
X025881Y021861D02*
X017341Y021861D01*
X017272Y021792D02*
X025881Y021792D01*
X025881Y021723D02*
X017333Y021723D01*
X017403Y021653D02*
X018328Y021653D01*
X018278Y021633D02*
X018167Y021522D01*
X018108Y021378D01*
X018108Y021222D01*
X018167Y021078D01*
X018278Y020967D01*
X018422Y020908D01*
X018578Y020908D01*
X018722Y020967D01*
X018833Y021078D01*
X018892Y021222D01*
X018892Y021378D01*
X018833Y021522D01*
X018722Y021633D01*
X018578Y021692D01*
X018422Y021692D01*
X018278Y021633D01*
X018229Y021584D02*
X017472Y021584D01*
X017541Y021514D02*
X018164Y021514D01*
X018136Y021445D02*
X017568Y021445D01*
X017568Y021376D02*
X018108Y021376D01*
X018108Y021306D02*
X017568Y021306D01*
X017568Y021237D02*
X018108Y021237D01*
X018130Y021168D02*
X017568Y021168D01*
X017568Y021098D02*
X018159Y021098D01*
X018216Y021029D02*
X017568Y021029D01*
X017502Y020960D02*
X018297Y020960D01*
X018703Y020960D02*
X019297Y020960D01*
X019278Y020967D02*
X019422Y020908D01*
X019578Y020908D01*
X019722Y020967D01*
X019833Y021078D01*
X019892Y021222D01*
X019892Y021378D01*
X019833Y021522D01*
X019722Y021633D01*
X019578Y021692D01*
X019422Y021692D01*
X019278Y021633D01*
X019167Y021522D01*
X019108Y021378D01*
X019108Y021222D01*
X019167Y021078D01*
X019278Y020967D01*
X019216Y021029D02*
X018784Y021029D01*
X018841Y021098D02*
X019159Y021098D01*
X019130Y021168D02*
X018870Y021168D01*
X018892Y021237D02*
X019108Y021237D01*
X019108Y021306D02*
X018892Y021306D01*
X018892Y021376D02*
X019108Y021376D01*
X019136Y021445D02*
X018864Y021445D01*
X018836Y021514D02*
X019164Y021514D01*
X019229Y021584D02*
X018771Y021584D01*
X018672Y021653D02*
X019328Y021653D01*
X019672Y021653D02*
X020328Y021653D01*
X020278Y021633D02*
X020167Y021522D01*
X020108Y021378D01*
X020108Y021222D01*
X020167Y021078D01*
X020278Y020967D01*
X020422Y020908D01*
X020578Y020908D01*
X020722Y020967D01*
X020833Y021078D01*
X020892Y021222D01*
X020892Y021378D01*
X020833Y021522D01*
X020722Y021633D01*
X020578Y021692D01*
X020422Y021692D01*
X020278Y021633D01*
X020229Y021584D02*
X019771Y021584D01*
X019836Y021514D02*
X020164Y021514D01*
X020136Y021445D02*
X019864Y021445D01*
X019892Y021376D02*
X020108Y021376D01*
X020108Y021306D02*
X019892Y021306D01*
X019892Y021237D02*
X020108Y021237D01*
X020130Y021168D02*
X019870Y021168D01*
X019841Y021098D02*
X020159Y021098D01*
X020216Y021029D02*
X019784Y021029D01*
X019703Y020960D02*
X020297Y020960D01*
X020703Y020960D02*
X020974Y020960D01*
X020905Y020890D02*
X017433Y020890D01*
X017363Y020821D02*
X020836Y020821D01*
X020766Y020751D02*
X017294Y020751D01*
X017000Y021300D02*
X016567Y020867D01*
X015807Y020867D01*
X015594Y021080D01*
X015594Y021505D01*
X015000Y021300D02*
X015000Y021265D01*
X013894Y020158D01*
X002130Y020158D01*
X001705Y019733D01*
X001705Y016757D01*
X001988Y016473D01*
X003406Y016473D01*
X003664Y016381D02*
X025435Y016381D01*
X025435Y016312D02*
X003632Y016312D01*
X003562Y016243D02*
X025435Y016243D01*
X025435Y016173D02*
X001694Y016173D01*
X001694Y016104D02*
X025450Y016104D01*
X025468Y016035D02*
X001694Y016035D01*
X001694Y015965D02*
X025487Y015965D01*
X025505Y015896D02*
X001694Y015896D01*
X001694Y015826D02*
X025543Y015826D01*
X025583Y015757D02*
X001694Y015757D01*
X001694Y015688D02*
X025623Y015688D01*
X025675Y015618D02*
X001753Y015618D01*
X001822Y015549D02*
X025744Y015549D01*
X025687Y014647D02*
X026313Y014647D01*
X026278Y014633D02*
X026167Y014522D01*
X026108Y014378D01*
X026108Y014222D01*
X026167Y014078D01*
X026278Y013967D01*
X026422Y013908D01*
X026578Y013908D01*
X026722Y013967D01*
X026833Y014078D01*
X026892Y014222D01*
X026892Y014378D01*
X026833Y014522D01*
X026722Y014633D01*
X026578Y014692D01*
X026422Y014692D01*
X026278Y014633D01*
X026223Y014578D02*
X025777Y014578D01*
X025838Y014508D02*
X026162Y014508D01*
X026133Y014439D02*
X025867Y014439D01*
X025892Y014370D02*
X026108Y014370D01*
X026108Y014300D02*
X025892Y014300D01*
X025892Y014231D02*
X026108Y014231D01*
X026133Y014162D02*
X025867Y014162D01*
X025839Y014092D02*
X026161Y014092D01*
X026222Y014023D02*
X025778Y014023D01*
X025689Y013954D02*
X026311Y013954D01*
X026689Y013954D02*
X027065Y013954D01*
X027065Y014023D02*
X026778Y014023D01*
X026839Y014092D02*
X027065Y014092D01*
X027065Y014162D02*
X026867Y014162D01*
X026892Y014231D02*
X027065Y014231D01*
X027065Y014300D02*
X026892Y014300D01*
X026892Y014370D02*
X027065Y014370D01*
X027065Y014439D02*
X026867Y014439D01*
X026838Y014508D02*
X027065Y014508D01*
X027065Y014578D02*
X026777Y014578D01*
X026687Y014647D02*
X027065Y014647D01*
X027065Y015272D02*
X026778Y015272D01*
X026969Y015341D02*
X027065Y015341D01*
X025557Y016798D02*
X001849Y016798D01*
X001836Y016867D02*
X025597Y016867D01*
X025637Y016936D02*
X001836Y016936D01*
X001836Y017006D02*
X025699Y017006D01*
X025768Y017075D02*
X001836Y017075D01*
X001836Y017144D02*
X025838Y017144D01*
X025952Y017214D02*
X001836Y017214D01*
X001836Y017283D02*
X026072Y017283D01*
X026012Y017394D02*
X026012Y017465D01*
X026312Y017353D02*
X001836Y017353D01*
X001836Y017422D02*
X027065Y017422D01*
X027065Y017491D02*
X001836Y017491D01*
X001836Y017561D02*
X027065Y017561D01*
X027065Y017630D02*
X001836Y017630D01*
X001836Y017699D02*
X027065Y017699D01*
X027065Y017769D02*
X001836Y017769D01*
X001836Y017838D02*
X027065Y017838D01*
X027065Y017907D02*
X001836Y017907D01*
X001836Y017977D02*
X027065Y017977D01*
X027065Y018046D02*
X001836Y018046D01*
X001836Y018116D02*
X027065Y018116D01*
X027065Y018185D02*
X001836Y018185D01*
X001836Y018254D02*
X027065Y018254D01*
X027065Y018324D02*
X001836Y018324D01*
X001836Y018393D02*
X027065Y018393D01*
X027065Y018462D02*
X001836Y018462D01*
X001836Y018532D02*
X027065Y018532D01*
X027065Y018601D02*
X001836Y018601D01*
X001836Y018670D02*
X027065Y018670D01*
X027065Y018740D02*
X001836Y018740D01*
X001836Y018809D02*
X027065Y018809D01*
X027065Y018879D02*
X001836Y018879D01*
X001836Y018948D02*
X027065Y018948D01*
X027065Y019017D02*
X001836Y019017D01*
X001836Y019087D02*
X027065Y019087D01*
X027065Y019156D02*
X001836Y019156D01*
X001836Y019225D02*
X013437Y019225D01*
X013367Y019295D02*
X001836Y019295D01*
X001836Y019364D02*
X013298Y019364D01*
X013504Y019343D02*
X013185Y019662D01*
X013185Y019733D01*
X012957Y019850D02*
X009164Y019850D01*
X009095Y019780D02*
X012916Y019780D01*
X012891Y019711D02*
X009085Y019711D01*
X009085Y019642D02*
X012891Y019642D01*
X012905Y019572D02*
X009072Y019572D01*
X009043Y019503D02*
X012933Y019503D01*
X012999Y019433D02*
X008978Y019433D01*
X008791Y019662D02*
X009146Y020017D01*
X013965Y020017D01*
X014531Y020583D01*
X020783Y020583D01*
X021500Y021300D01*
X021136Y021445D02*
X020864Y021445D01*
X020892Y021376D02*
X021108Y021376D01*
X021108Y021306D02*
X020892Y021306D01*
X020892Y021237D02*
X021108Y021237D01*
X021130Y021168D02*
X020870Y021168D01*
X020841Y021098D02*
X021113Y021098D01*
X021044Y021029D02*
X020784Y021029D01*
X021067Y020682D02*
X021697Y020682D01*
X021628Y020613D02*
X020998Y020613D01*
X021137Y020751D02*
X021766Y020751D01*
X021836Y020821D02*
X021206Y020821D01*
X021275Y020890D02*
X021905Y020890D01*
X021974Y020960D02*
X021703Y020960D01*
X021784Y021029D02*
X022044Y021029D01*
X022113Y021098D02*
X021841Y021098D01*
X021870Y021168D02*
X022130Y021168D01*
X022108Y021237D02*
X021892Y021237D01*
X021892Y021306D02*
X022108Y021306D01*
X022108Y021376D02*
X021892Y021376D01*
X021864Y021445D02*
X022136Y021445D01*
X022164Y021514D02*
X021836Y021514D01*
X021771Y021584D02*
X022229Y021584D01*
X022328Y021653D02*
X021672Y021653D01*
X021328Y021653D02*
X020672Y021653D01*
X020771Y021584D02*
X021229Y021584D01*
X021164Y021514D02*
X020836Y021514D01*
X020633Y021931D02*
X021367Y021931D01*
X021245Y022000D02*
X020755Y022000D01*
X020824Y022069D02*
X021176Y022069D01*
X021142Y022139D02*
X020858Y022139D01*
X020887Y022208D02*
X021113Y022208D01*
X021108Y022278D02*
X020892Y022278D01*
X020892Y022347D02*
X021108Y022347D01*
X021124Y022416D02*
X020876Y022416D01*
X020848Y022486D02*
X021152Y022486D01*
X021200Y022555D02*
X020800Y022555D01*
X020367Y021931D02*
X019633Y021931D01*
X019755Y022000D02*
X020245Y022000D01*
X020176Y022069D02*
X019824Y022069D01*
X019858Y022139D02*
X020142Y022139D01*
X020113Y022208D02*
X019887Y022208D01*
X019892Y022278D02*
X020108Y022278D01*
X020108Y022347D02*
X019892Y022347D01*
X019876Y022416D02*
X020124Y022416D01*
X020152Y022486D02*
X019848Y022486D01*
X019800Y022555D02*
X020200Y022555D01*
X019367Y021931D02*
X018633Y021931D01*
X018755Y022000D02*
X019245Y022000D01*
X019176Y022069D02*
X018824Y022069D01*
X018858Y022139D02*
X019142Y022139D01*
X019113Y022208D02*
X018887Y022208D01*
X018892Y022278D02*
X019108Y022278D01*
X019108Y022347D02*
X018892Y022347D01*
X018876Y022416D02*
X019124Y022416D01*
X019152Y022486D02*
X018848Y022486D01*
X018800Y022555D02*
X019200Y022555D01*
X018367Y021931D02*
X017410Y021931D01*
X017480Y022000D02*
X018245Y022000D01*
X018176Y022069D02*
X017549Y022069D01*
X017154Y021859D02*
X018004Y022709D01*
X017942Y022832D02*
X016653Y022832D01*
X016722Y022763D02*
X017873Y022763D01*
X017803Y022694D02*
X016791Y022694D01*
X017230Y022624D02*
X017734Y022624D01*
X017154Y021859D02*
X016445Y021859D01*
X016004Y022300D01*
X016000Y022300D01*
X015676Y022763D02*
X007463Y022763D01*
X007423Y022832D02*
X015745Y022832D01*
X014353Y021653D02*
X014172Y021653D01*
X014271Y021584D02*
X014294Y021584D01*
X013828Y021653D02*
X013172Y021653D01*
X013271Y021584D02*
X013729Y021584D01*
X013664Y021514D02*
X013336Y021514D01*
X013364Y021445D02*
X013636Y021445D01*
X013608Y021376D02*
X013392Y021376D01*
X013392Y021306D02*
X013608Y021306D01*
X013608Y021237D02*
X013392Y021237D01*
X013370Y021168D02*
X013630Y021168D01*
X013659Y021098D02*
X013341Y021098D01*
X013284Y021029D02*
X013716Y021029D01*
X013797Y020960D02*
X013203Y020960D01*
X013000Y021300D02*
X012283Y020583D01*
X001917Y020583D01*
X001280Y019946D01*
X001280Y011017D01*
X001634Y010662D01*
X001552Y013815D02*
X027065Y013815D01*
X027065Y013884D02*
X001552Y013884D01*
X001846Y014843D02*
X001846Y014914D01*
X001799Y015202D02*
X001552Y015202D01*
X001552Y015133D02*
X003449Y015133D01*
X003507Y015063D02*
X001552Y015063D01*
X001552Y015272D02*
X001729Y015272D01*
X001660Y015341D02*
X001552Y015341D01*
X001552Y015410D02*
X001591Y015410D01*
X001891Y015480D02*
X003513Y015480D01*
X003451Y015410D02*
X001961Y015410D01*
X001694Y016243D02*
X003249Y016243D01*
X003179Y016312D02*
X001694Y016312D01*
X001694Y016381D02*
X001895Y016381D01*
X001826Y016451D02*
X001694Y016451D01*
X001694Y016520D02*
X001756Y016520D01*
X001918Y016728D02*
X003305Y016728D01*
X003204Y016659D02*
X001988Y016659D01*
X003506Y016728D02*
X025517Y016728D01*
X025493Y016659D02*
X003607Y016659D01*
X003654Y016589D02*
X025475Y016589D01*
X025456Y016520D02*
X003679Y016520D01*
X003679Y016451D02*
X025437Y016451D01*
X026688Y017353D02*
X027065Y017353D01*
X027065Y017283D02*
X026928Y017283D01*
X027048Y017214D02*
X027065Y017214D01*
X027065Y019225D02*
X014068Y019225D01*
X014135Y019295D02*
X027065Y019295D01*
X027065Y019364D02*
X014202Y019364D01*
X014269Y019433D02*
X027065Y019433D01*
X027065Y019503D02*
X014335Y019503D01*
X014402Y019572D02*
X027065Y019572D01*
X027065Y019642D02*
X014469Y019642D01*
X014536Y019711D02*
X025863Y019711D01*
X025790Y019780D02*
X014603Y019780D01*
X014669Y019850D02*
X025755Y019850D01*
X025738Y019919D02*
X014736Y019919D01*
X014803Y019988D02*
X025738Y019988D01*
X025762Y020058D02*
X014870Y020058D01*
X014936Y020127D02*
X025806Y020127D01*
X025881Y020197D02*
X022582Y020197D01*
X022651Y020266D02*
X025881Y020266D01*
X025881Y020335D02*
X022720Y020335D01*
X022790Y020405D02*
X025881Y020405D01*
X025881Y020474D02*
X022859Y020474D01*
X022928Y020543D02*
X025881Y020543D01*
X025881Y020613D02*
X022998Y020613D01*
X023067Y020682D02*
X025881Y020682D01*
X025881Y020751D02*
X023137Y020751D01*
X023206Y020821D02*
X025881Y020821D01*
X025881Y020890D02*
X023275Y020890D01*
X023113Y021098D02*
X022841Y021098D01*
X022870Y021168D02*
X023130Y021168D01*
X023108Y021237D02*
X022892Y021237D01*
X022892Y021306D02*
X023108Y021306D01*
X023108Y021376D02*
X022892Y021376D01*
X022864Y021445D02*
X023136Y021445D01*
X023164Y021514D02*
X022836Y021514D01*
X022771Y021584D02*
X023229Y021584D01*
X023328Y021653D02*
X022672Y021653D01*
X022500Y021300D02*
X021642Y020442D01*
X014602Y020442D01*
X013823Y019662D01*
X013965Y019662D01*
X014000Y019343D02*
X013504Y019343D01*
X014000Y019343D02*
X014921Y020300D01*
X022500Y020300D01*
X023500Y021300D01*
X023864Y021445D02*
X024136Y021445D01*
X024108Y021378D02*
X024167Y021522D01*
X024278Y021633D01*
X024422Y021692D01*
X024578Y021692D01*
X024722Y021633D01*
X024833Y021522D01*
X024892Y021378D01*
X024892Y021222D01*
X024833Y021078D01*
X024722Y020967D01*
X024578Y020908D01*
X024422Y020908D01*
X024278Y020967D01*
X024167Y021078D01*
X024108Y021222D01*
X024108Y021378D01*
X024108Y021376D02*
X023892Y021376D01*
X023892Y021306D02*
X024108Y021306D01*
X024108Y021237D02*
X023892Y021237D01*
X023870Y021168D02*
X024130Y021168D01*
X024159Y021098D02*
X023841Y021098D01*
X023784Y021029D02*
X024216Y021029D01*
X024297Y020960D02*
X023703Y020960D01*
X023836Y021514D02*
X024164Y021514D01*
X024229Y021584D02*
X023771Y021584D01*
X023672Y021653D02*
X024328Y021653D01*
X024367Y021931D02*
X023633Y021931D01*
X023755Y022000D02*
X024245Y022000D01*
X024176Y022069D02*
X023824Y022069D01*
X023858Y022139D02*
X024142Y022139D01*
X024113Y022208D02*
X023887Y022208D01*
X023892Y022278D02*
X024108Y022278D01*
X024108Y022347D02*
X023892Y022347D01*
X023876Y022416D02*
X024124Y022416D01*
X024152Y022486D02*
X023848Y022486D01*
X023800Y022555D02*
X024200Y022555D01*
X024800Y022555D02*
X025200Y022555D01*
X025152Y022486D02*
X024848Y022486D01*
X024876Y022416D02*
X025124Y022416D01*
X025108Y022347D02*
X024892Y022347D01*
X024892Y022278D02*
X025108Y022278D01*
X025113Y022208D02*
X024887Y022208D01*
X024858Y022139D02*
X025142Y022139D01*
X025176Y022069D02*
X024824Y022069D01*
X024755Y022000D02*
X025245Y022000D01*
X025367Y021931D02*
X024633Y021931D01*
X024672Y021653D02*
X025328Y021653D01*
X025229Y021584D02*
X024771Y021584D01*
X024836Y021514D02*
X025164Y021514D01*
X025136Y021445D02*
X024864Y021445D01*
X024892Y021376D02*
X025108Y021376D01*
X025108Y021306D02*
X024892Y021306D01*
X024892Y021237D02*
X025108Y021237D01*
X025130Y021168D02*
X024870Y021168D01*
X024841Y021098D02*
X025159Y021098D01*
X025216Y021029D02*
X024784Y021029D01*
X024703Y020960D02*
X025297Y020960D01*
X025703Y020960D02*
X025881Y020960D01*
X025881Y021029D02*
X025784Y021029D01*
X025841Y021098D02*
X025881Y021098D01*
X025870Y021168D02*
X025881Y021168D01*
X025864Y021445D02*
X025881Y021445D01*
X025881Y021514D02*
X025836Y021514D01*
X025881Y021584D02*
X025771Y021584D01*
X025672Y021653D02*
X025881Y021653D01*
X026286Y019988D02*
X027065Y019988D01*
X027065Y019919D02*
X026286Y019919D01*
X026268Y019850D02*
X027065Y019850D01*
X027065Y019780D02*
X026234Y019780D01*
X026161Y019711D02*
X027065Y019711D01*
X023367Y021931D02*
X022633Y021931D01*
X022755Y022000D02*
X023245Y022000D01*
X023176Y022069D02*
X022824Y022069D01*
X022858Y022139D02*
X023142Y022139D01*
X023113Y022208D02*
X022887Y022208D01*
X022892Y022278D02*
X023108Y022278D01*
X023108Y022347D02*
X022892Y022347D01*
X022876Y022416D02*
X023124Y022416D01*
X023152Y022486D02*
X022848Y022486D01*
X022800Y022555D02*
X023200Y022555D01*
X022367Y021931D02*
X021633Y021931D01*
X021755Y022000D02*
X022245Y022000D01*
X022176Y022069D02*
X021824Y022069D01*
X021858Y022139D02*
X022142Y022139D01*
X022113Y022208D02*
X021887Y022208D01*
X021892Y022278D02*
X022108Y022278D01*
X022108Y022347D02*
X021892Y022347D01*
X021876Y022416D02*
X022124Y022416D01*
X022152Y022486D02*
X021848Y022486D01*
X021800Y022555D02*
X022200Y022555D01*
X022784Y021029D02*
X023044Y021029D01*
X022974Y020960D02*
X022703Y020960D01*
X022836Y020821D02*
X022206Y020821D01*
X022275Y020890D02*
X022905Y020890D01*
X022766Y020751D02*
X022137Y020751D01*
X022067Y020682D02*
X022697Y020682D01*
X022628Y020613D02*
X021998Y020613D01*
X021928Y020543D02*
X022558Y020543D01*
X022489Y020474D02*
X021859Y020474D01*
X018571Y016048D02*
X018571Y015977D01*
X018571Y012009D02*
X018571Y011938D01*
X025091Y007898D02*
X025091Y007828D01*
X026797Y006323D02*
X027065Y006323D01*
X027065Y006254D02*
X026979Y006254D01*
X025435Y005421D02*
X006237Y005421D01*
X006306Y005352D02*
X025435Y005352D01*
X025435Y005283D02*
X006376Y005283D01*
X006445Y005213D02*
X025435Y005213D01*
X025439Y005144D02*
X006514Y005144D01*
X006584Y005075D02*
X025457Y005075D01*
X025476Y005005D02*
X006653Y005005D01*
X006722Y004936D02*
X025495Y004936D01*
X025520Y004867D02*
X006792Y004867D01*
X006861Y004797D02*
X025560Y004797D01*
X025600Y004728D02*
X006930Y004728D01*
X007000Y004658D02*
X020340Y004658D01*
X020278Y004633D02*
X020167Y004522D01*
X020108Y004378D01*
X020108Y004222D01*
X020167Y004078D01*
X020278Y003967D01*
X020422Y003908D01*
X020578Y003908D01*
X020722Y003967D01*
X020833Y004078D01*
X020892Y004222D01*
X020892Y004378D01*
X020833Y004522D01*
X020722Y004633D01*
X020578Y004692D01*
X020422Y004692D01*
X020278Y004633D01*
X020234Y004589D02*
X007069Y004589D01*
X007139Y004520D02*
X020166Y004520D01*
X020138Y004450D02*
X007208Y004450D01*
X007277Y004381D02*
X020109Y004381D01*
X020108Y004312D02*
X007347Y004312D01*
X007416Y004242D02*
X020108Y004242D01*
X020128Y004173D02*
X007485Y004173D01*
X007555Y004104D02*
X020157Y004104D01*
X020211Y004034D02*
X007624Y004034D01*
X007693Y003965D02*
X020284Y003965D01*
X020716Y003965D02*
X021284Y003965D01*
X021278Y003967D02*
X021422Y003908D01*
X021578Y003908D01*
X021722Y003967D01*
X021833Y004078D01*
X021892Y004222D01*
X021892Y004378D01*
X021833Y004522D01*
X021722Y004633D01*
X021578Y004692D01*
X021422Y004692D01*
X021278Y004633D01*
X021167Y004522D01*
X021108Y004378D01*
X021108Y004222D01*
X021167Y004078D01*
X021278Y003967D01*
X021211Y004034D02*
X020789Y004034D01*
X020843Y004104D02*
X021157Y004104D01*
X021128Y004173D02*
X020872Y004173D01*
X020892Y004242D02*
X021108Y004242D01*
X021108Y004312D02*
X020892Y004312D01*
X020891Y004381D02*
X021109Y004381D01*
X021138Y004450D02*
X020862Y004450D01*
X020834Y004520D02*
X021166Y004520D01*
X021234Y004589D02*
X020766Y004589D01*
X020660Y004658D02*
X021340Y004658D01*
X021660Y004658D02*
X022340Y004658D01*
X022278Y004633D02*
X022422Y004692D01*
X022578Y004692D01*
X022722Y004633D01*
X022833Y004522D01*
X022892Y004378D01*
X022892Y004222D01*
X022833Y004078D01*
X022722Y003967D01*
X022578Y003908D01*
X022422Y003908D01*
X022278Y003967D01*
X022167Y004078D01*
X022108Y004222D01*
X022108Y004378D01*
X022167Y004522D01*
X022278Y004633D01*
X022234Y004589D02*
X021766Y004589D01*
X021834Y004520D02*
X022166Y004520D01*
X022138Y004450D02*
X021862Y004450D01*
X021891Y004381D02*
X022109Y004381D01*
X022108Y004312D02*
X021892Y004312D01*
X021892Y004242D02*
X022108Y004242D01*
X022128Y004173D02*
X021872Y004173D01*
X021843Y004104D02*
X022157Y004104D01*
X022211Y004034D02*
X021789Y004034D01*
X021716Y003965D02*
X022284Y003965D01*
X022716Y003965D02*
X023284Y003965D01*
X023278Y003967D02*
X023422Y003908D01*
X023578Y003908D01*
X023722Y003967D01*
X023833Y004078D01*
X023892Y004222D01*
X023892Y004378D01*
X023833Y004522D01*
X023722Y004633D01*
X023578Y004692D01*
X023422Y004692D01*
X023278Y004633D01*
X023167Y004522D01*
X023108Y004378D01*
X023108Y004222D01*
X023167Y004078D01*
X023278Y003967D01*
X023211Y004034D02*
X022789Y004034D01*
X022843Y004104D02*
X023157Y004104D01*
X023128Y004173D02*
X022872Y004173D01*
X022892Y004242D02*
X023108Y004242D01*
X023108Y004312D02*
X022892Y004312D01*
X022891Y004381D02*
X023109Y004381D01*
X023138Y004450D02*
X022862Y004450D01*
X022834Y004520D02*
X023166Y004520D01*
X023234Y004589D02*
X022766Y004589D01*
X022660Y004658D02*
X023340Y004658D01*
X023660Y004658D02*
X024340Y004658D01*
X024278Y004633D02*
X024167Y004522D01*
X024108Y004378D01*
X024108Y004222D01*
X024167Y004078D01*
X024278Y003967D01*
X024422Y003908D01*
X024578Y003908D01*
X024722Y003967D01*
X024833Y004078D01*
X024892Y004222D01*
X024892Y004378D01*
X024833Y004522D01*
X024722Y004633D01*
X024578Y004692D01*
X024422Y004692D01*
X024278Y004633D01*
X024234Y004589D02*
X023766Y004589D01*
X023834Y004520D02*
X024166Y004520D01*
X024138Y004450D02*
X023862Y004450D01*
X023891Y004381D02*
X024109Y004381D01*
X024108Y004312D02*
X023892Y004312D01*
X023892Y004242D02*
X024108Y004242D01*
X024128Y004173D02*
X023872Y004173D01*
X023843Y004104D02*
X024157Y004104D01*
X024211Y004034D02*
X023789Y004034D01*
X023716Y003965D02*
X024284Y003965D01*
X024410Y003687D02*
X023590Y003687D01*
X023578Y003692D02*
X023422Y003692D01*
X023278Y003633D01*
X023167Y003522D01*
X023108Y003378D01*
X023108Y003222D01*
X023167Y003078D01*
X023278Y002967D01*
X023422Y002908D01*
X023578Y002908D01*
X023722Y002967D01*
X023833Y003078D01*
X023892Y003222D01*
X023892Y003378D01*
X023833Y003522D01*
X023722Y003633D01*
X023578Y003692D01*
X023410Y003687D02*
X022590Y003687D01*
X022578Y003692D02*
X022422Y003692D01*
X022278Y003633D01*
X022167Y003522D01*
X022108Y003378D01*
X022108Y003222D01*
X022167Y003078D01*
X022278Y002967D01*
X022422Y002908D01*
X022578Y002908D01*
X022722Y002967D01*
X022833Y003078D01*
X022892Y003222D01*
X022892Y003378D01*
X022833Y003522D01*
X022722Y003633D01*
X022578Y003692D01*
X022410Y003687D02*
X021590Y003687D01*
X021578Y003692D02*
X021422Y003692D01*
X021278Y003633D01*
X021167Y003522D01*
X021108Y003378D01*
X021108Y003222D01*
X021167Y003078D01*
X021278Y002967D01*
X021422Y002908D01*
X021578Y002908D01*
X021722Y002967D01*
X021833Y003078D01*
X021892Y003222D01*
X021892Y003378D01*
X021833Y003522D01*
X021722Y003633D01*
X021578Y003692D01*
X021410Y003687D02*
X020590Y003687D01*
X020578Y003692D02*
X020422Y003692D01*
X020278Y003633D01*
X020167Y003522D01*
X020108Y003378D01*
X020108Y003222D01*
X020167Y003078D01*
X020278Y002967D01*
X020422Y002908D01*
X020578Y002908D01*
X020722Y002967D01*
X020833Y003078D01*
X020892Y003222D01*
X020892Y003378D01*
X020833Y003522D01*
X020722Y003633D01*
X020578Y003692D01*
X020410Y003687D02*
X018590Y003687D01*
X018578Y003692D02*
X018422Y003692D01*
X018278Y003633D01*
X018167Y003522D01*
X018108Y003378D01*
X018108Y003222D01*
X018167Y003078D01*
X018278Y002967D01*
X018422Y002908D01*
X018578Y002908D01*
X018722Y002967D01*
X018833Y003078D01*
X018892Y003222D01*
X018892Y003378D01*
X018833Y003522D01*
X018722Y003633D01*
X018578Y003692D01*
X018410Y003687D02*
X017692Y003687D01*
X017666Y003701D02*
X017727Y003670D01*
X017782Y003630D01*
X017830Y003582D01*
X017870Y003527D01*
X017901Y003466D01*
X017922Y003401D01*
X017932Y003335D01*
X017535Y003335D01*
X017535Y003265D01*
X017535Y002868D01*
X017601Y002878D01*
X017666Y002899D01*
X017727Y002930D01*
X017782Y002970D01*
X017830Y003018D01*
X017870Y003073D01*
X017901Y003134D01*
X017922Y003199D01*
X017932Y003265D01*
X017535Y003265D01*
X017465Y003265D01*
X017465Y002868D01*
X017399Y002878D01*
X017334Y002899D01*
X017273Y002930D01*
X017218Y002970D01*
X017170Y003018D01*
X017130Y003073D01*
X017099Y003134D01*
X017078Y003199D01*
X017068Y003265D01*
X017465Y003265D01*
X017465Y003335D01*
X017068Y003335D01*
X017078Y003401D01*
X017099Y003466D01*
X017130Y003527D01*
X017170Y003582D01*
X017218Y003630D01*
X017273Y003670D01*
X017334Y003701D01*
X017399Y003722D01*
X017465Y003732D01*
X017465Y003335D01*
X017535Y003335D01*
X017535Y003732D01*
X017601Y003722D01*
X017666Y003701D01*
X017535Y003687D02*
X017465Y003687D01*
X017465Y003618D02*
X017535Y003618D01*
X017535Y003549D02*
X017465Y003549D01*
X017465Y003479D02*
X017535Y003479D01*
X017535Y003410D02*
X017465Y003410D01*
X017465Y003340D02*
X017535Y003340D01*
X017535Y003271D02*
X018108Y003271D01*
X018108Y003340D02*
X017931Y003340D01*
X017919Y003410D02*
X018121Y003410D01*
X018150Y003479D02*
X017894Y003479D01*
X017854Y003549D02*
X018194Y003549D01*
X018263Y003618D02*
X017793Y003618D01*
X017922Y003202D02*
X018116Y003202D01*
X018145Y003132D02*
X017900Y003132D01*
X017862Y003063D02*
X018182Y003063D01*
X018252Y002994D02*
X017805Y002994D01*
X017715Y002924D02*
X018382Y002924D01*
X018618Y002924D02*
X020382Y002924D01*
X020252Y002994D02*
X018748Y002994D01*
X018818Y003063D02*
X020182Y003063D01*
X020145Y003132D02*
X018855Y003132D01*
X018884Y003202D02*
X020116Y003202D01*
X020108Y003271D02*
X018892Y003271D01*
X018892Y003340D02*
X020108Y003340D01*
X020121Y003410D02*
X018879Y003410D01*
X018850Y003479D02*
X020150Y003479D01*
X020194Y003549D02*
X018806Y003549D01*
X018737Y003618D02*
X020263Y003618D01*
X020737Y003618D02*
X021263Y003618D01*
X021194Y003549D02*
X020806Y003549D01*
X020850Y003479D02*
X021150Y003479D01*
X021121Y003410D02*
X020879Y003410D01*
X020892Y003340D02*
X021108Y003340D01*
X021108Y003271D02*
X020892Y003271D01*
X020884Y003202D02*
X021116Y003202D01*
X021145Y003132D02*
X020855Y003132D01*
X020818Y003063D02*
X021182Y003063D01*
X021252Y002994D02*
X020748Y002994D01*
X020618Y002924D02*
X021382Y002924D01*
X021618Y002924D02*
X022382Y002924D01*
X022252Y002994D02*
X021748Y002994D01*
X021818Y003063D02*
X022182Y003063D01*
X022145Y003132D02*
X021855Y003132D01*
X021884Y003202D02*
X022116Y003202D01*
X022108Y003271D02*
X021892Y003271D01*
X021892Y003340D02*
X022108Y003340D01*
X022121Y003410D02*
X021879Y003410D01*
X021850Y003479D02*
X022150Y003479D01*
X022194Y003549D02*
X021806Y003549D01*
X021737Y003618D02*
X022263Y003618D01*
X022737Y003618D02*
X023263Y003618D01*
X023194Y003549D02*
X022806Y003549D01*
X022850Y003479D02*
X023150Y003479D01*
X023121Y003410D02*
X022879Y003410D01*
X022892Y003340D02*
X023108Y003340D01*
X023108Y003271D02*
X022892Y003271D01*
X022884Y003202D02*
X023116Y003202D01*
X023145Y003132D02*
X022855Y003132D01*
X022818Y003063D02*
X023182Y003063D01*
X023252Y002994D02*
X022748Y002994D01*
X022618Y002924D02*
X023382Y002924D01*
X023618Y002924D02*
X024382Y002924D01*
X024422Y002908D02*
X024578Y002908D01*
X024722Y002967D01*
X024833Y003078D01*
X024892Y003222D01*
X024892Y003378D01*
X024833Y003522D01*
X024722Y003633D01*
X024578Y003692D01*
X024422Y003692D01*
X024278Y003633D01*
X024167Y003522D01*
X024108Y003378D01*
X024108Y003222D01*
X024167Y003078D01*
X024278Y002967D01*
X024422Y002908D01*
X024252Y002994D02*
X023748Y002994D01*
X023818Y003063D02*
X024182Y003063D01*
X024145Y003132D02*
X023855Y003132D01*
X023884Y003202D02*
X024116Y003202D01*
X024108Y003271D02*
X023892Y003271D01*
X023892Y003340D02*
X024108Y003340D01*
X024121Y003410D02*
X023879Y003410D01*
X023850Y003479D02*
X024150Y003479D01*
X024194Y003549D02*
X023806Y003549D01*
X023737Y003618D02*
X024263Y003618D01*
X024590Y003687D02*
X025410Y003687D01*
X025422Y003692D02*
X025278Y003633D01*
X025167Y003522D01*
X025108Y003378D01*
X025108Y003222D01*
X025167Y003078D01*
X025278Y002967D01*
X025422Y002908D01*
X025578Y002908D01*
X025722Y002967D01*
X025833Y003078D01*
X025892Y003222D01*
X025892Y003378D01*
X025833Y003522D01*
X025722Y003633D01*
X025578Y003692D01*
X025422Y003692D01*
X025590Y003687D02*
X027065Y003687D01*
X027065Y003618D02*
X025737Y003618D01*
X025806Y003549D02*
X027065Y003549D01*
X027065Y003479D02*
X025850Y003479D01*
X025879Y003410D02*
X027065Y003410D01*
X027065Y003340D02*
X025892Y003340D01*
X025892Y003271D02*
X027065Y003271D01*
X027065Y003202D02*
X025884Y003202D01*
X025855Y003132D02*
X027065Y003132D01*
X027065Y003063D02*
X025818Y003063D01*
X025748Y002994D02*
X027065Y002994D01*
X027009Y002924D02*
X025618Y002924D01*
X025382Y002924D02*
X024618Y002924D01*
X024748Y002994D02*
X025252Y002994D01*
X025182Y003063D02*
X024818Y003063D01*
X024855Y003132D02*
X025145Y003132D01*
X025116Y003202D02*
X024884Y003202D01*
X024892Y003271D02*
X025108Y003271D01*
X025108Y003340D02*
X024892Y003340D01*
X024879Y003410D02*
X025121Y003410D01*
X025150Y003479D02*
X024850Y003479D01*
X024806Y003549D02*
X025194Y003549D01*
X025263Y003618D02*
X024737Y003618D01*
X024716Y003965D02*
X025284Y003965D01*
X025211Y004034D02*
X024789Y004034D01*
X024843Y004104D02*
X025157Y004104D01*
X025128Y004173D02*
X024872Y004173D01*
X024892Y004242D02*
X025108Y004242D01*
X025108Y004312D02*
X024892Y004312D01*
X024891Y004381D02*
X025109Y004381D01*
X025138Y004450D02*
X024862Y004450D01*
X024834Y004520D02*
X025166Y004520D01*
X025234Y004589D02*
X024766Y004589D01*
X024660Y004658D02*
X025340Y004658D01*
X025891Y004381D02*
X025961Y004381D01*
X025892Y004312D02*
X026081Y004312D01*
X025892Y004242D02*
X026331Y004242D01*
X026669Y004242D02*
X027065Y004242D01*
X027065Y004173D02*
X025872Y004173D01*
X025843Y004104D02*
X027065Y004104D01*
X027065Y004034D02*
X025789Y004034D01*
X025716Y003965D02*
X027065Y003965D01*
X027065Y003895D02*
X007763Y003895D01*
X007832Y003826D02*
X027065Y003826D01*
X027065Y003757D02*
X007902Y003757D01*
X007971Y003687D02*
X013410Y003687D01*
X013422Y003692D02*
X013278Y003633D01*
X013167Y003522D01*
X013108Y003378D01*
X013108Y003222D01*
X013167Y003078D01*
X013278Y002967D01*
X013422Y002908D01*
X013578Y002908D01*
X013722Y002967D01*
X013833Y003078D01*
X013892Y003222D01*
X013892Y003378D01*
X013833Y003522D01*
X013722Y003633D01*
X013578Y003692D01*
X013422Y003692D01*
X013590Y003687D02*
X014410Y003687D01*
X014422Y003692D02*
X014278Y003633D01*
X014167Y003522D01*
X014108Y003378D01*
X014108Y003222D01*
X014167Y003078D01*
X014278Y002967D01*
X014422Y002908D01*
X014578Y002908D01*
X014722Y002967D01*
X014833Y003078D01*
X014892Y003222D01*
X014892Y003378D01*
X014833Y003522D01*
X014722Y003633D01*
X014578Y003692D01*
X014422Y003692D01*
X014590Y003687D02*
X015410Y003687D01*
X015422Y003692D02*
X015278Y003633D01*
X015167Y003522D01*
X015108Y003378D01*
X015108Y003222D01*
X015167Y003078D01*
X015278Y002967D01*
X015422Y002908D01*
X015578Y002908D01*
X015722Y002967D01*
X015833Y003078D01*
X015892Y003222D01*
X015892Y003378D01*
X015833Y003522D01*
X015722Y003633D01*
X015578Y003692D01*
X015422Y003692D01*
X015590Y003687D02*
X016308Y003687D01*
X016334Y003701D02*
X016273Y003670D01*
X016218Y003630D01*
X016170Y003582D01*
X016130Y003527D01*
X016099Y003466D01*
X016078Y003401D01*
X016068Y003335D01*
X016465Y003335D01*
X016465Y003265D01*
X016535Y003265D01*
X016535Y002868D01*
X016601Y002878D01*
X016666Y002899D01*
X016727Y002930D01*
X016782Y002970D01*
X016830Y003018D01*
X016870Y003073D01*
X016901Y003134D01*
X016922Y003199D01*
X016932Y003265D01*
X016535Y003265D01*
X016535Y003335D01*
X016932Y003335D01*
X016922Y003401D01*
X016901Y003466D01*
X016870Y003527D01*
X016830Y003582D01*
X016782Y003630D01*
X016727Y003670D01*
X016666Y003701D01*
X016601Y003722D01*
X016535Y003732D01*
X016535Y003335D01*
X016465Y003335D01*
X016465Y003732D01*
X016399Y003722D01*
X016334Y003701D01*
X016465Y003687D02*
X016535Y003687D01*
X016535Y003618D02*
X016465Y003618D01*
X016465Y003549D02*
X016535Y003549D01*
X016535Y003479D02*
X016465Y003479D01*
X016465Y003410D02*
X016535Y003410D01*
X016535Y003340D02*
X016465Y003340D01*
X016465Y003271D02*
X015892Y003271D01*
X015892Y003340D02*
X016069Y003340D01*
X016081Y003410D02*
X015879Y003410D01*
X015850Y003479D02*
X016106Y003479D01*
X016146Y003549D02*
X015806Y003549D01*
X015737Y003618D02*
X016207Y003618D01*
X016068Y003265D02*
X016078Y003199D01*
X016099Y003134D01*
X016130Y003073D01*
X016170Y003018D01*
X016218Y002970D01*
X016273Y002930D01*
X016334Y002899D01*
X016399Y002878D01*
X016465Y002868D01*
X016465Y003265D01*
X016068Y003265D01*
X016078Y003202D02*
X015884Y003202D01*
X015855Y003132D02*
X016100Y003132D01*
X016138Y003063D02*
X015818Y003063D01*
X015748Y002994D02*
X016195Y002994D01*
X016285Y002924D02*
X015618Y002924D01*
X015382Y002924D02*
X014618Y002924D01*
X014748Y002994D02*
X015252Y002994D01*
X015182Y003063D02*
X014818Y003063D01*
X014855Y003132D02*
X015145Y003132D01*
X015116Y003202D02*
X014884Y003202D01*
X014892Y003271D02*
X015108Y003271D01*
X015108Y003340D02*
X014892Y003340D01*
X014879Y003410D02*
X015121Y003410D01*
X015150Y003479D02*
X014850Y003479D01*
X014806Y003549D02*
X015194Y003549D01*
X015263Y003618D02*
X014737Y003618D01*
X014263Y003618D02*
X013737Y003618D01*
X013806Y003549D02*
X014194Y003549D01*
X014150Y003479D02*
X013850Y003479D01*
X013879Y003410D02*
X014121Y003410D01*
X014108Y003340D02*
X013892Y003340D01*
X013892Y003271D02*
X014108Y003271D01*
X014116Y003202D02*
X013884Y003202D01*
X013855Y003132D02*
X014145Y003132D01*
X014182Y003063D02*
X013818Y003063D01*
X013748Y002994D02*
X014252Y002994D01*
X014382Y002924D02*
X013618Y002924D01*
X013382Y002924D02*
X008734Y002924D01*
X008803Y002855D02*
X026939Y002855D01*
X026870Y002786D02*
X008873Y002786D01*
X008665Y002994D02*
X013252Y002994D01*
X013182Y003063D02*
X008595Y003063D01*
X008526Y003132D02*
X013145Y003132D01*
X013116Y003202D02*
X008457Y003202D01*
X008387Y003271D02*
X013108Y003271D01*
X013108Y003340D02*
X008318Y003340D01*
X008248Y003410D02*
X013121Y003410D01*
X013150Y003479D02*
X008179Y003479D01*
X008110Y003549D02*
X013194Y003549D01*
X013263Y003618D02*
X008040Y003618D01*
X016465Y003202D02*
X016535Y003202D01*
X016535Y003271D02*
X017465Y003271D01*
X017465Y003202D02*
X017535Y003202D01*
X017535Y003132D02*
X017465Y003132D01*
X017465Y003063D02*
X017535Y003063D01*
X017535Y002994D02*
X017465Y002994D01*
X017465Y002924D02*
X017535Y002924D01*
X017285Y002924D02*
X016715Y002924D01*
X016805Y002994D02*
X017195Y002994D01*
X017138Y003063D02*
X016862Y003063D01*
X016900Y003132D02*
X017100Y003132D01*
X017078Y003202D02*
X016922Y003202D01*
X016931Y003340D02*
X017069Y003340D01*
X017081Y003410D02*
X016919Y003410D01*
X016894Y003479D02*
X017106Y003479D01*
X017146Y003549D02*
X016854Y003549D01*
X016793Y003618D02*
X017207Y003618D01*
X017308Y003687D02*
X016692Y003687D01*
X016535Y003132D02*
X016465Y003132D01*
X016465Y003063D02*
X016535Y003063D01*
X016535Y002994D02*
X016465Y002994D01*
X016465Y002924D02*
X016535Y002924D01*
X026919Y004312D02*
X027065Y004312D01*
X027065Y004381D02*
X027039Y004381D01*
X008932Y019988D02*
X002145Y019988D01*
X002076Y019919D02*
X008644Y019919D01*
X008564Y019850D02*
X002006Y019850D01*
X001937Y019780D02*
X008523Y019780D01*
X008498Y019711D02*
X001868Y019711D01*
X001836Y019642D02*
X008498Y019642D01*
X008511Y019572D02*
X001836Y019572D01*
X001836Y019503D02*
X008540Y019503D01*
X008605Y019433D02*
X001836Y019433D01*
X002343Y018528D02*
X002413Y018528D01*
X004752Y019733D02*
X004823Y019804D01*
X005345Y020751D02*
X012266Y020751D01*
X012336Y020821D02*
X005414Y020821D01*
X005464Y020890D02*
X012405Y020890D01*
X012474Y020960D02*
X012203Y020960D01*
X012222Y020967D02*
X012333Y021078D01*
X012392Y021222D01*
X012392Y021378D01*
X012333Y021522D01*
X012222Y021633D01*
X012078Y021692D01*
X011922Y021692D01*
X011778Y021633D01*
X011667Y021522D01*
X011608Y021378D01*
X011608Y021222D01*
X011667Y021078D01*
X011778Y020967D01*
X011922Y020908D01*
X012078Y020908D01*
X012222Y020967D01*
X012284Y021029D02*
X012544Y021029D01*
X012613Y021098D02*
X012341Y021098D01*
X012370Y021168D02*
X012630Y021168D01*
X012608Y021237D02*
X012392Y021237D01*
X012392Y021306D02*
X012608Y021306D01*
X012608Y021376D02*
X012392Y021376D01*
X012364Y021445D02*
X012636Y021445D01*
X012664Y021514D02*
X012336Y021514D01*
X012271Y021584D02*
X012729Y021584D01*
X012828Y021653D02*
X012172Y021653D01*
X011828Y021653D02*
X011172Y021653D01*
X011222Y021633D02*
X011078Y021692D01*
X010922Y021692D01*
X010778Y021633D01*
X010667Y021522D01*
X010608Y021378D01*
X010608Y021222D01*
X010667Y021078D01*
X010778Y020967D01*
X010922Y020908D01*
X011078Y020908D01*
X011222Y020967D01*
X011333Y021078D01*
X011392Y021222D01*
X011392Y021378D01*
X011333Y021522D01*
X011222Y021633D01*
X011271Y021584D02*
X011729Y021584D01*
X011664Y021514D02*
X011336Y021514D01*
X011364Y021445D02*
X011636Y021445D01*
X011608Y021376D02*
X011392Y021376D01*
X011392Y021306D02*
X011608Y021306D01*
X011608Y021237D02*
X011392Y021237D01*
X011370Y021168D02*
X011630Y021168D01*
X011659Y021098D02*
X011341Y021098D01*
X011284Y021029D02*
X011716Y021029D01*
X011797Y020960D02*
X011203Y020960D01*
X010797Y020960D02*
X010203Y020960D01*
X010284Y021029D02*
X010716Y021029D01*
X010659Y021098D02*
X010341Y021098D01*
X010370Y021168D02*
X010630Y021168D01*
X010608Y021237D02*
X010392Y021237D01*
X010392Y021306D02*
X010608Y021306D01*
X010608Y021376D02*
X010392Y021376D01*
X010364Y021445D02*
X010636Y021445D01*
X010664Y021514D02*
X010336Y021514D01*
X010271Y021584D02*
X010729Y021584D01*
X010828Y021653D02*
X010172Y021653D01*
X009659Y021098D02*
X005510Y021098D01*
X005510Y021029D02*
X009716Y021029D01*
X009797Y020960D02*
X005493Y020960D01*
X003886Y021445D02*
X003261Y021445D01*
X003377Y021376D02*
X003803Y021376D01*
X003749Y021306D02*
X003446Y021306D01*
X003477Y021237D02*
X003715Y021237D01*
X008154Y019733D02*
X008154Y019662D01*
X011227Y021931D02*
X011867Y021931D01*
X011745Y022000D02*
X011311Y022000D01*
X011367Y022069D02*
X011676Y022069D01*
X011642Y022139D02*
X011402Y022139D01*
X012706Y020821D02*
X013946Y020821D01*
X014015Y020890D02*
X012775Y020890D01*
X012637Y020751D02*
X013877Y020751D01*
X013807Y020682D02*
X012567Y020682D01*
X012498Y020613D02*
X013738Y020613D01*
X008154Y015765D02*
X007657Y015765D01*
X003689Y014843D02*
X003689Y014772D01*
D13*
X004398Y011087D02*
X004398Y011017D01*
X003547Y010379D02*
X003547Y010308D01*
X008154Y012859D02*
X008154Y012930D01*
X012547Y011654D02*
X012547Y011583D01*
X011768Y008749D02*
X012193Y008182D01*
X011130Y007615D02*
X011059Y007544D01*
X014744Y007615D02*
X014815Y007615D01*
X015594Y012009D02*
X015736Y012009D01*
D14*
X013823Y019662D03*
X013185Y019662D03*
X008791Y019662D03*
M02*
