%
M48
M72
T01C0.0197
T02C0.0236
T03C0.0394
T04C0.1260
%
T01
X11059Y7544
X12193Y8182
X14744Y7615
X12547Y11583
X15594Y12009
X18571Y11938
X18571Y16048
X26012Y17465
X26012Y19946
X25091Y7828
X8154Y12859
X5957Y12576
X4398Y11017
X3972Y10662
X3547Y10308
X3689Y14772
X3689Y15269
X3406Y16473
X1846Y14843
X2413Y18528
X4752Y19733
X8154Y19662
X7657Y15765
T02
X8791Y19662
X13185Y19662
X13823Y19662
T03
X14000Y21300
X15000Y21300
X16000Y21300
X16000Y22300
X15000Y22300
X14000Y22300
X13000Y22300
X12000Y22300
X11000Y22300
X11000Y21300
X12000Y21300
X13000Y21300
X10000Y21300
X10000Y22300
X5118Y21080
X4118Y21080
X3118Y21080
X2118Y21080
X17000Y21300
X17000Y22300
X18500Y22300
X19500Y22300
X19500Y21300
X18500Y21300
X20500Y21300
X21500Y21300
X22500Y21300
X22500Y22300
X21500Y22300
X20500Y22300
X23500Y22300
X24500Y22300
X25500Y22300
X25500Y21300
X24500Y21300
X23500Y21300
X25500Y14300
X25500Y13300
X25500Y12300
X26500Y12300
X26500Y13300
X26500Y14300
X25500Y4300
X24500Y4300
X23500Y4300
X23500Y3300
X24500Y3300
X25500Y3300
X22500Y3300
X21500Y3300
X20500Y3300
X20500Y4300
X21500Y4300
X22500Y4300
X18500Y3300
X17500Y3300
X16500Y3300
X15500Y3300
X14500Y3300
X13500Y3300
T04
X6000Y3300
X26500Y5300
X26500Y16300
X6500Y22300
M30
